<svg width="3102" height="2806" viewBox="0 0 3102 2806" fill="none" xmlns="http://www.w3.org/2000/svg">
<path d="M2946.5 892.5L2991 801L3043.5 910.5L3072 1080.5L3056.5 1243L3027.5 1347.5L2991 1303L2946.5 1224.5L2928.5 1125V1041.5L2946.5 892.5Z" fill="#179EFF" stroke="black"/>
<path d="M780 528.5H926.5L1076 615H929.5L759.5 651.5L675.5 706.5L613 798L579 926.5L565.5 1117.5V1243L652 1342.5L793.5 1371L1008 1389.5L1274.5 1418L1240.5 1470.5L1128 1567.5L1008 1633L827.5 1664L675.5 1648.5L476.5 1549L343.5 1418L259.5 1243L238.5 1049.5L291 858.5L374.5 738L476.5 628L613 555L780 528.5Z" fill="#179EFF" stroke="black"/>
<path d="M569.5 1934.5L474 1973.5L409 2121L392 2307.5L457 2418L556.5 2472L721 2461L814.5 2485L873 2461L955 2389.5L987.5 2272.5L1022.5 2168.5L1000.5 2047.5L922.5 1984.5L844.5 1995.5L814.5 2032L708 1973.5L569.5 1934.5Z" fill="#179EFF" stroke="black"/>
<path d="M1030.5 1786.5L1200.5 1716.5L1224 1695L1237 1716.5L1307 1812.5L1372 1885L1512 1941.5L1620.5 1926.5L1728.5 1885L1802.5 1812.5L1854.5 1744L1900.5 1645L1875 1594.5H1827.5H1686.5H1479H1341L1389.5 1530L1457.5 1414.5L1512 1401.5H1728.5L2046.5 1391.5L2312 1370L2478 1313.5L2508.5 1244.5L2522.5 1094L2508.5 903.5L2434.5 732L2291.5 628L2099.5 616.5L1870 644H1558.5H1385L1331.5 589L1217.5 492L1048.5 411.5L846.5 365L667.5 378L680.5 330.5L872.5 208L1164 92.5L1496.5 31.5L1902 55L2367 241L2637 459L2805.5 677L2787 802.5L2771 954L2787 1261.5L2846 1469.5L2771 1609.5L2603.5 1812.5L2352.5 2006.5L2093 2117.5L1917 2167L1620.5 2205L1372 2196.5L1251.5 2183L1129.5 2153.5L1025 2130V2096L1003 2045.5L970 1996.5L918 1976.5L858.5 1990L813 1992.5V1941.5L835 1812.5H897.5L1030.5 1786.5Z" fill="#179EFF" stroke="black"/>
<path fill-rule="evenodd" clip-rule="evenodd" d="M1506.06 2.85016C1425.56 7.55866 1368.12 13.6707 1320.28 22.6063C1311.06 24.3281 1295.3 27.0292 1285.25 28.6041C1228.42 37.5152 1140.9 60.7721 1069 86.0772C1007.96 107.555 991.874 113.594 973.736 121.868C964.888 125.908 957.044 129.204 956.293 129.204C954.742 129.204 927.569 141.559 890.438 159.136C803.303 200.395 664.876 293.063 595.356 356.665C585.961 365.258 573.415 372.414 557.163 378.453C382.665 443.254 224.688 580.625 151.503 731.207C140.778 753.28 132.272 765.807 118.739 779.467C52.6799 846.169 26.6742 893.156 10.9777 974.164C9.36154 982.536 6.21897 998.294 3.99877 1009.18C-1.29053 1035.1 -1.34766 1149.83 3.91715 1175.13C10.839 1208.38 26.7069 1272.48 29.1556 1277.13C30.4861 1279.64 37.1385 1293.5 43.9379 1307.92C54.8756 1331.13 66.5154 1349.06 95.0841 1386.75C99.5245 1392.61 111.287 1404.76 121.22 1413.75C132.354 1423.84 143.006 1437.26 149.006 1448.77C176.725 1501.94 217.473 1559.44 256.073 1599.83C271.304 1615.78 289.123 1634.77 295.669 1642.05C310.533 1658.58 370.642 1704.37 409.324 1728.63C445.149 1751.11 448.553 1753.87 490.337 1794.3C508.776 1812.14 528.652 1830.69 534.504 1835.53C540.349 1840.36 551.719 1850.23 559.759 1857.44L574.378 1870.57L570.574 1888.99C568.011 1901.4 565.31 1907.42 562.314 1907.42C557.131 1907.42 530.856 1914.96 507.682 1923.09C473.245 1935.19 418.042 1992.19 403.504 2030.7C401.619 2035.69 398.215 2043.92 395.938 2048.97C354.317 2141.36 358.259 2305.53 404.28 2395.66C420.85 2428.11 453.932 2461.87 483.791 2476.77L504.67 2487.19L502.793 2501.03C501.756 2508.64 500.132 2523.1 499.193 2533.15C498.246 2543.2 496.296 2554.15 494.859 2557.51C493.414 2560.85 491.569 2571.13 490.745 2580.34C489.921 2589.55 487.733 2610.4 485.88 2626.67C472.722 2742.04 558.853 2826.5 663.921 2801.25C736.771 2783.75 766.825 2740.42 781.273 2632.1C782.954 2619.54 786.742 2592.21 789.705 2571.36L795.084 2533.44L819.351 2524.7C832.697 2519.89 847.732 2514.67 852.752 2513.11C862.171 2510.17 884.708 2495.89 910.893 2476.26C970.765 2431.37 1021.7 2336.72 1021.76 2270.23C1021.79 2241.84 1022.78 2234.25 1027.34 2227.6C1034.25 2217.54 1044.82 2192.3 1047.58 2179.21C1050.49 2165.51 1053.42 2164.68 1071.43 2172.42C1089.25 2180.09 1115.54 2187.5 1151.24 2194.92C1164.63 2197.71 1181.77 2201.33 1189.31 2202.96C1202.78 2205.88 1232.61 2211.05 1283.72 2219.3C1408.55 2239.48 1593.55 2243.92 1734.49 2230.14C1794.49 2224.27 1821.75 2221 1836.52 2217.88C1865.82 2211.71 1882.34 2208.57 1898.96 2206.01C1916.42 2203.32 1939.46 2197.84 1985.76 2185.37C2000.83 2181.3 2018.65 2176.81 2025.35 2175.37C2035.69 2173.16 2077.45 2160.26 2129.69 2143.14C2136.81 2140.81 2151.89 2134.31 2163.18 2128.71C2174.49 2123.1 2198.81 2112.56 2217.24 2105.27C2235.66 2097.99 2261.01 2086.64 2273.58 2080.06C2332.63 2049.08 2346.82 2041.26 2369.52 2027.18C2382.92 2018.85 2397.27 2010.09 2401.41 2007.69C2405.54 2005.3 2416.11 1998.2 2424.88 1991.92C2433.66 1985.63 2441.52 1980.5 2442.35 1980.5C2446.47 1980.5 2542.36 1907.46 2570.53 1882.85C2634.71 1826.82 2700.86 1759.72 2730.95 1720.16C2739.87 1708.44 2747.93 1698.16 2748.86 1697.32C2765.54 1682.37 2829.54 1587.35 2852.42 1543.56C2871.35 1507.33 2873.31 1505.51 2893.21 1505.46C2946.77 1505.33 3002.49 1468.77 3035.85 1411.84C3050.19 1387.39 3065.47 1348.97 3065.47 1348.97L3068.35 1338.75C3068.35 1338.75 3108.82 1142.54 3100.61 1033.43C3098.16 1000.84 3083.87 914.21 3080.32 910.375C3078.85 908.783 3077.65 904.809 3077.65 901.553C3077.65 891.459 3065.71 859.479 3046.23 817.347C3001.35 720.321 2936.82 666.414 2863.53 664.749C2829.84 663.982 2836.3 670.2 2772.42 577.001C2725.86 509.075 2627.53 399.98 2566.2 348.211C2555.43 339.12 2536.25 322.302 2523.56 310.82C2510.87 299.347 2485.41 280.04 2466.98 267.922C2390.28 217.474 2361.71 199.236 2359.42 199.236C2358.09 199.236 2346.79 192.618 2334.32 184.523C2301.2 163.021 2286.13 155.081 2261.84 146.317C2249.89 142.008 2234.81 135.782 2228.32 132.469C2214.44 125.385 2131.5 92.026 2103.02 82.0705C2049.43 63.3344 1944.64 35.7689 1898.96 28.3919C1889.74 26.8986 1874.66 24.2302 1865.46 22.4512C1846.96 18.877 1818.12 14.6663 1783.22 10.4393C1770.66 8.92144 1730.91 6.3183 1694.89 4.6536C1658.88 2.9889 1617.08 0.997781 1602 0.230712C1586.93 -0.528197 1543.75 0.646881 1506.06 2.85016ZM1662.91 71.4865C1745.22 75.5585 1835.53 85.1143 1875.92 94.0253C1886.08 96.2694 1901.93 99.7294 1911.14 101.712C1920.35 103.703 1932.69 106.535 1938.55 108.012C1944.41 109.489 1958.12 112.925 1969.01 115.666C1979.9 118.4 1992.23 121.264 1996.42 122.04C2011.62 124.847 2031.51 130.2 2034.49 132.281C2036.17 133.456 2040.28 135.153 2043.63 136.051C2046.97 136.949 2067.41 143.999 2089.04 151.719C2110.66 159.43 2130.4 165.746 2132.93 165.746C2137.82 165.746 2274.19 232.62 2314.7 254.89C2349.67 274.123 2390.61 299.804 2414.93 317.773C2426.51 326.325 2440.91 336.28 2446.91 339.904C2477.52 358.33 2549.86 421.507 2601.16 474.622C2615.11 489.058 2652.31 532.911 2687.85 576.806C2695.31 586.019 2702.29 594.236 2703.36 595.076C2707.32 598.177 2770.43 693.066 2772.82 699.504C2774.17 703.176 2774.25 709.615 2772.98 713.809C2764.78 740.901 2756.6 787.921 2748.88 852.363C2737.82 944.501 2739.02 1078.16 2751.81 1179.69C2761.25 1254.76 2760.87 1252.5 2776.4 1324.32C2783.57 1357.45 2785.97 1366.13 2800.52 1411.11C2818.18 1465.7 2818.05 1467.93 2794.63 1505.5C2789.93 1513.03 2776.75 1534.27 2765.35 1552.69C2680.68 1689.46 2568.4 1807.89 2441.09 1894.69C2423.5 1906.67 2401.05 1922.33 2391.19 1929.47C2369.3 1945.31 2355.92 1953.73 2336.02 1964.19C2327.64 1968.6 2313.25 1977.02 2304.04 1982.9C2267.13 2006.49 2207.64 2037.35 2177.49 2048.53C2165.84 2052.85 2146.73 2059.9 2135 2064.19C2123.27 2068.49 2106.14 2075.32 2096.93 2079.36C2082.07 2085.88 2036.53 2099.52 1982.71 2113.57C1972.66 2116.2 1950.73 2122.12 1933.98 2126.72C1917.23 2131.32 1895.3 2136.61 1885.25 2138.47C1875.2 2140.33 1856.01 2144.02 1842.61 2146.67C1819.12 2151.3 1802.83 2153.48 1740.58 2160.25C1654.18 2169.64 1559.18 2171.59 1454.29 2166.13C1397.34 2163.17 1377.51 2161.36 1320.28 2153.91C1270.03 2147.37 1254.62 2145.16 1238.04 2142.12C1228.82 2140.43 1214.73 2138.12 1206.73 2136.98C1198.73 2135.85 1191.45 2133.74 1190.56 2132.31C1189.68 2130.87 1185.67 2129.7 1181.66 2129.7C1173.26 2129.7 1152.44 2124.29 1117.73 2113.11C1104.33 2108.79 1085.83 2102.93 1076.62 2100.09C1054.43 2093.25 1052.26 2091.31 1052.21 2078.33C1052.06 2029.25 1020.17 1981.55 971.786 1957.97C931.553 1938.38 908.975 1936.59 866.898 1949.68C842.41 1957.3 840.337 1953.39 849.789 1917.46C852.344 1907.75 855.609 1888.39 857.045 1874.43C860.286 1843.07 860.221 1843.13 892.952 1840.07C930.598 1836.55 956.856 1832.47 974.585 1827.41C982.96 1825.01 997.351 1821.34 1006.57 1819.25C1048.23 1809.8 1134.16 1775.55 1163.9 1756.53C1172.92 1750.76 1181.44 1746.04 1182.85 1746.04C1184.26 1746.04 1190.57 1742.54 1196.89 1738.25C1211.85 1728.1 1214.9 1729.73 1225.93 1753.82C1247.88 1801.73 1291.41 1854.43 1340.07 1892.01C1404.51 1941.77 1496.95 1969.53 1578.7 1963.65C1636.41 1959.5 1700.89 1938.91 1743.15 1911.15C1752.63 1904.93 1762.09 1899.13 1764.18 1898.26C1775.73 1893.48 1834.39 1833.49 1854.32 1806.08C1916.44 1720.61 1943.51 1613.01 1911.97 1576.98C1892.96 1555.29 1885.84 1554.55 1777.13 1562.95C1679.71 1570.46 1406.74 1574.68 1400.81 1568.76C1399.7 1567.65 1404.3 1560.16 1411.02 1552.11C1433.26 1525.45 1456.02 1491.56 1469.69 1464.73C1486.24 1432.27 1455.13 1436.48 1710.12 1432.22C1990.06 1427.53 2033.38 1425.86 2172.83 1414.31C2217.64 1410.59 2220.14 1410.32 2302.51 1400.1C2457.6 1380.85 2522.55 1343.15 2545.78 1258.86C2567.15 1181.35 2560.38 974.254 2533.44 881.291C2514.51 816.017 2510.77 805.164 2495.59 771.796C2419.54 604.6 2236.34 542.793 1953.78 589.013C1942.89 590.792 1918.22 593.51 1898.96 595.052C1879.69 596.594 1854.34 599.361 1842.61 601.205C1762.34 613.829 1562.16 620.781 1455.81 614.637L1404.03 611.642L1356.82 564.231C1313.23 520.45 1295.39 504.905 1261.44 481.085C1254.43 476.173 1239.11 465.099 1227.38 456.474C1215.65 447.856 1195.78 435.273 1183.22 428.533C1170.65 421.784 1156.26 414.056 1151.24 411.363C1110.85 389.714 1013.28 356.338 966.97 348.341C919.203 340.083 899.703 338.557 818.576 336.697L732.608 334.738L751.267 319.821C761.528 311.612 779.812 299.812 791.901 293.602C803.989 287.384 819.914 278.138 827.301 273.062C834.688 267.987 866.734 250.516 898.519 234.236C930.304 217.956 957.681 203.643 959.354 202.427C962.546 200.101 1001.1 184.915 1062.91 161.642C1099.17 147.981 1108.29 145.248 1140.58 138.319C1157.68 134.656 1164.21 132.852 1190.65 124.496C1198.94 121.885 1218.12 117.119 1233.3 113.904C1248.47 110.697 1280.75 103.279 1305.04 97.4282C1329.34 91.5772 1353.46 86.7463 1358.65 86.681C1363.85 86.6239 1372.07 85.2693 1376.92 83.678C1385 81.0259 1475.98 72.5474 1519.77 70.3686C1563.17 68.2061 1603.02 68.5162 1662.91 71.4865ZM901.49 406.141C960.652 411.959 1049.45 437.15 1102.52 463.157C1135.63 479.38 1177.19 502.743 1190.83 512.78C1274.62 574.512 1309.67 605.807 1347.77 652.925C1355.21 662.138 1362.26 670.38 1363.41 671.245C1369.62 675.847 1418.59 753.256 1429.15 775.126C1454.77 828.208 1474.29 878.46 1480.14 906.343C1482.69 918.527 1486.07 934.651 1487.65 942.192C1502.76 1014.61 1507.38 1135.83 1496.81 1182.74C1495.11 1190.27 1492.45 1206.03 1490.9 1217.76C1486.89 1248.01 1475.84 1288.31 1463.36 1318.23C1461.96 1321.58 1456.52 1335.97 1451.26 1350.21C1432.84 1400.12 1402.46 1454.85 1366.76 1502.45C1341.65 1543.44 1238.39 1637.35 1213.9 1650.01C1208.9 1652.6 1195.88 1660.95 1184.97 1668.57C1169.29 1679.53 1111.81 1708.8 1062.91 1730.7C1036.65 1742.46 982.601 1758.36 942.605 1766.08C930.043 1768.5 914.142 1771.78 907.269 1773.36C854.384 1785.49 706.48 1776.65 638.037 1757.25C579.096 1740.56 511.6 1714.05 493.365 1700.45C491.684 1699.2 477.905 1691.74 462.731 1683.87C355.003 1627.99 244.197 1503.46 190.251 1377.61C184.863 1365.05 178.072 1349.29 175.15 1342.59C167.6 1325.28 148.899 1266.5 144.63 1246.68C142.647 1237.47 139.872 1225.13 138.46 1219.27C117.253 1131.36 125.008 996.148 157.405 888.905C173.224 836.507 177.999 824.291 197.54 786.044C250.996 681.429 311.872 605.824 389.808 547.29C406.557 534.707 424.71 520.418 430.147 515.538C435.575 510.658 450.651 501.004 463.646 494.093C476.64 487.181 490.696 479.208 494.883 476.377C513.559 463.753 597.306 434.563 651.742 421.703C660.117 419.728 671.765 416.961 677.625 415.55C683.494 414.138 701.305 411.461 717.222 409.601C733.139 407.74 755.063 404.949 765.952 403.391C787.248 400.347 856.956 401.759 901.49 406.141ZM768.327 490.192C767.397 491.114 754.492 492.991 739.644 494.354C709.133 497.145 660.509 505.941 652.542 510.095C649.636 511.621 645.522 512.853 643.408 512.845C632.952 512.804 556.486 545.641 532.717 560.379C524.203 565.659 513.927 571.012 509.87 572.293C505.813 573.566 493.594 580.861 482.705 588.507C334.139 692.878 242.393 846.039 218.86 1028.97C211.367 1087.19 220.289 1216.72 233.536 1242.12C236.157 1247.13 239.797 1258.28 241.617 1266.88C251.265 1312.51 288.731 1386.9 338.743 1459.78C379.123 1518.63 479.285 1599.37 554.233 1633.5C594.686 1651.93 608.383 1657.34 623.108 1660.72C632.152 1662.8 645.188 1666.45 652.077 1668.83C663.521 1672.78 674.679 1675.15 714.177 1682.06C800.585 1697.18 878.652 1693.46 963.925 1670.14C1007.88 1658.12 1022.49 1653.85 1038.22 1648.42C1056.34 1642.17 1092.31 1620.85 1092.31 1620.85L1103.14 1615.12C1103.14 1615.12 1155.53 1584.06 1183.15 1563.97C1221.67 1535.95 1295.41 1458.36 1314 1426.29C1316.41 1422.12 1323.42 1410.48 1329.57 1400.42C1374.07 1327.69 1401.15 1254.56 1408.51 1187.3C1410.53 1168.88 1413.43 1146.36 1414.96 1137.26C1428.55 1056.31 1398.75 904.605 1350.93 811.259C1322.09 754.986 1313.26 741.513 1278.96 701.528C1162.89 566.222 994.779 488.503 818.184 488.503C791.688 488.503 769.258 489.262 768.327 490.192ZM893.875 558.331C904.763 560.003 919.84 562.843 927.374 564.647C934.916 566.45 947.935 568.8 956.31 569.861C976.177 572.383 965.305 576.055 936.671 576.504C824.738 578.234 703.092 622.952 646.143 683.298C557.971 776.741 507.339 1013.81 533.214 1212.05C552.102 1356.83 623.533 1395.17 915.195 1417.11C939.478 1418.93 964.839 1421.15 971.541 1422.03C990.266 1424.5 1076.77 1428.91 1152.27 1431.26C1202.34 1432.81 1220.71 1434.38 1221.79 1437.19C1223.47 1441.56 1197.42 1468.05 1170.45 1489.39C1160.31 1497.41 1143.82 1511.14 1133.81 1519.88C1123.8 1528.64 1111.97 1537.7 1107.53 1540.02C1103.09 1542.33 1091.92 1548.34 1082.71 1553.37C993.865 1601.93 899.784 1627.29 808.568 1627.29C775.412 1627.29 759.977 1625.63 721.793 1617.93C576.729 1588.68 447.933 1508.79 383.498 1408.06C378.674 1400.52 370.462 1389.23 365.255 1382.97C350.285 1364.99 341.518 1345.81 343.755 1335.92C344.824 1331.22 346.979 1306.82 348.546 1281.69C350.113 1256.58 353.191 1211.36 355.378 1181.22C360.398 1111.93 360.431 924.59 355.427 864.775L351.632 819.33L359.084 808.444C446.284 681.135 525.721 620.994 666.965 575.345C683.723 569.935 707.019 563.961 718.748 562.084C730.469 560.199 746.917 557.351 755.292 555.744C773.388 552.284 865.73 554.006 893.875 558.331ZM1078.13 647.017C1088.19 648.567 1100.84 649.849 1106.25 649.857C1134.5 649.922 1213.48 721.92 1267.27 796.636C1279.88 814.14 1323.32 898.51 1323.32 905.478C1323.32 908.514 1325.31 915.76 1327.74 921.579C1338.63 947.643 1353.65 1038.86 1353.69 1079.21C1353.75 1137.75 1335.17 1241.9 1317.83 1280.23C1314.45 1287.74 1310 1299.36 1307.95 1306.05C1302.33 1324.49 1280.74 1365.2 1275.05 1368.11C1266.98 1372.23 963.933 1358.01 892.348 1350.15C875.599 1348.31 847.503 1345.64 829.913 1344.21C780.971 1340.24 743.17 1335.43 734.273 1332.05C729.857 1330.37 717.344 1326.93 706.472 1324.41C666.875 1315.23 629.54 1290.76 615.346 1264.69C586.091 1210.95 589.715 990.199 621.541 887.379C623.875 879.847 631.205 856.141 637.841 834.696C646.959 805.221 653.481 790.369 664.59 773.795C672.663 761.743 681.258 747.984 683.69 743.219C719.785 672.42 922.329 623.017 1078.13 647.017ZM2162.41 643.663C2230.48 648.722 2283.16 660.612 2312.58 677.569C2318.12 680.76 2324.01 683.371 2325.67 683.371C2341.57 683.371 2408.69 746.932 2421.46 774.073C2424.38 780.291 2431.43 794.971 2437.11 806.69C2496.98 930.204 2513.21 1227.9 2462.98 1281.06C2445.19 1299.87 2388.28 1325.7 2364.37 1325.81C2359.86 1325.83 2355.47 1326.99 2354.6 1328.38C2352.52 1331.75 2299.91 1339.13 2240.07 1344.45C2222.48 1346 2193.02 1348.62 2174.6 1350.26C2051.22 1361.23 1977.69 1364.44 1763.43 1368.23C1596.13 1371.2 1518.24 1370.14 1518.24 1364.93C1518.24 1363.48 1519.47 1359.93 1520.97 1357.01C1522.48 1354.11 1526.53 1342.14 1529.99 1330.42C1533.45 1318.69 1538.33 1302.25 1540.83 1293.88C1545.87 1277 1550.87 1254.07 1561.43 1199.49C1570.94 1150.34 1571.66 1024.5 1562.69 980.251C1559.63 965.179 1556.54 948.736 1555.81 943.709C1553.88 930.253 1549.05 909.763 1542.54 887.379C1539.37 876.501 1535.13 859.373 1533.1 849.319C1529.72 832.476 1524.71 819.126 1515.95 803.646C1514.06 800.3 1510.05 791.389 1507.06 783.857C1497.03 758.658 1461.51 692.054 1456.44 688.92C1448.11 683.771 1461.35 682.824 1536.35 683.224C1611.23 683.624 1663.45 681.527 1763.43 674.134C1821.63 669.825 1909.4 660.661 1937.03 656.018C1945.4 654.606 1970.76 651.84 1993.37 649.873C2015.99 647.906 2044.09 645.23 2055.81 643.916C2084.33 640.725 2121.73 640.635 2162.41 643.663ZM2901.46 739.563C2922.08 749.363 2940.76 764.786 2949.86 779.516L2956.53 790.287L2943.73 818.212C2919.15 871.866 2915.91 885.779 2907.16 975.682C2898.61 1063.4 2911.1 1197.37 2933.7 1260.38C2948.91 1302.76 2952.14 1310.12 2961.52 1323.75C2966.76 1331.37 2971.04 1339.54 2971.04 1339.54C2971.04 1339.54 2974.47 1345.97 2978.66 1351.46C2987.3 1362.79 2977.14 1385.25 2977.14 1385.25C2970.07 1400.63 2883.32 1457.43 2874.4 1433.52C2860.36 1395.88 2849.35 1361.13 2845.1 1341.07C2844.21 1336.88 2840.58 1319.76 2837.01 1303.01C2811.07 1181.08 2801.74 1071.39 2806.43 943.709C2809.65 856.068 2823.26 746.989 2832.93 731.354C2836.74 725.185 2882.83 730.709 2901.46 739.563ZM1012.66 858.548C956.236 868.21 905.661 894.495 864.539 935.5C778.53 1021.27 758.875 1143.4 831.121 1143.08C850.475 1143 854.335 1140.06 881.035 1105.1C939.405 1028.65 1028.29 990.444 1100.98 1010.55C1160.16 1026.92 1225.76 1075.59 1249.78 1120.95C1278.59 1175.34 1351.11 1136.04 1335.25 1074.64C1333.52 1067.94 1330.96 1058 1329.56 1052.56C1297.54 928.482 1146 835.7 1012.66 858.548ZM1991.85 857.071C1875.14 875.954 1787.46 947.789 1752.85 1052.86C1723.99 1140.46 1785.68 1180.27 1839.28 1108.64C1892.78 1037.16 1980.02 993.381 2043.82 1006C2112.36 1019.55 2160.68 1051.16 2205.96 1112.08C2255.18 1178.3 2316.21 1136.55 2291.55 1053.55C2252.07 920.673 2122.73 835.887 1991.85 857.071ZM2996.35 865.305C2997.26 868.235 3002.27 882.727 3007.48 897.506C3042.43 996.654 3049.87 1149.6 3024.9 1255.82C3020.13 1276.12 3016.77 1284.74 3013.64 1284.74C3008.95 1284.74 2991.16 1252.03 2988.24 1238.06C2987.31 1233.59 2985.18 1223.76 2983.51 1216.23C2960.28 1111.42 2955.66 999.363 2971.27 919.351C2979.5 877.219 2991.82 850.674 2996.35 865.305ZM293.661 1030.49C292.331 1049.75 291.156 1087.77 291.033 1114.99C290.813 1167.46 286.764 1180.55 283.034 1140.87C278.904 1096.95 287.033 985.368 293.808 992.94C295.049 994.336 294.984 1011.24 293.661 1030.49ZM1857.03 1634.9C1850.06 1687.68 1810.85 1760.53 1763.97 1807.82C1670.2 1902.42 1550.45 1923.71 1428.4 1867.49C1369.1 1840.17 1307.62 1776.27 1281.84 1715.15C1269.34 1685.55 1269.37 1687.73 1281.44 1680.63C1286.88 1677.42 1301.52 1666.55 1313.97 1656.47L1336.58 1638.14L1483 1637.8C1629.61 1637.45 1790.74 1632.97 1794.57 1629.13C1800.3 1623.41 1857.85 1628.73 1857.03 1634.9ZM682.196 1834.36C707.149 1839.61 778.522 1846.81 785.036 1844.75C793.574 1842.04 795.802 1847.6 792.823 1864.16C789.24 1884.1 784.285 1918.21 782.35 1936.35C779.91 1959.19 779.044 1960.92 772.743 1955.42C769.845 1952.89 761.993 1948.35 755.292 1945.33C748.59 1942.31 739.685 1937.57 735.498 1934.8C727.041 1929.22 705.982 1922.72 671.536 1915.06C638.38 1907.68 633.458 1906.09 633.54 1902.78C633.589 1901.15 636.184 1883.56 639.319 1863.69L645.016 1827.57L655.995 1829.36C662.027 1830.34 673.822 1832.6 682.196 1834.36ZM655.015 1976.08C711.63 1987.76 776.163 2027.64 798.128 2064.5C813.294 2089.95 805.956 2120.57 778.547 2146.25C765.715 2158.27 766.115 2168 780.049 2183.15C812.519 2218.44 809.654 2253.72 771.168 2292.45L750.141 2313.61L756.524 2335.57C776.147 2403.1 737.693 2443.34 653.554 2443.31C517.975 2443.28 466.804 2407.42 440.627 2294.13C430.204 2248.98 429.885 2168.6 440.007 2134.27C441.484 2129.24 444.219 2118.97 446.08 2111.43C474.216 1997.43 542.92 1952.93 655.015 1976.08ZM940.523 2018.72C973.941 2037.39 988.217 2068.75 988.6 2124.29C989.008 2183.33 977.271 2201.05 937.675 2201.17C872.693 2201.37 850.377 2181.26 863.412 2134.27C871.24 2106.08 869.224 2053.34 859.943 2043.07C838.108 2018.94 904.829 1998.78 940.523 2018.72ZM895.393 2262.39C907.122 2264.97 925.88 2266.68 937.079 2266.19C962.513 2265.09 962.334 2264.87 956.334 2290.02C941.789 2350.97 890.161 2417.71 835.937 2445.67C806.609 2460.79 804.814 2459.77 814.6 2433.54C823.799 2408.9 827.587 2375.77 823.669 2354.19C820.412 2336.21 820.486 2335.84 829.962 2324.06C841.373 2309.87 857.323 2275.88 857.323 2265.77C857.323 2256.49 860.261 2253.77 867.91 2255.94C871.297 2256.92 883.671 2259.81 895.393 2262.39ZM732.453 2504.74C732.453 2518.12 714.92 2641 709.198 2667.71C699.346 2713.71 676.287 2733.46 631.94 2733.86C566.917 2734.46 538.447 2689.22 552.674 2607.93C554.298 2598.62 557.171 2578.67 559.057 2563.6C567.881 2493.11 562.567 2499.55 608.244 2503.89C643.645 2507.24 707.329 2502.94 713.491 2496.79C719.989 2490.29 732.453 2495.52 732.453 2504.74Z" fill="#179EFF"/>
</svg>
