<svg width="1024" height="1024" viewBox="0 0 1024 1024" fill="none" xmlns="http://www.w3.org/2000/svg">
<g clip-path="url(#clip0_74_656)">
<path d="M185.903 671.33C169.277 658.778 151.882 634.569 139.573 617.766C131.908 607.299 133.655 603.591 121.722 595.114C109.601 586.508 95.9707 572.209 86.316 560.578C75.6394 547.741 66.1694 533.912 58.0313 519.281C54.2036 512.243 50.7096 504.413 46.9073 497.4C44.498 494.788 39.833 492.357 37.3566 490.082C7.05161 461.977 -1.22808 419.817 1.11872 379.517C3.00544 346.102 14.8793 307.992 42.8235 287.758C51.5387 281.448 51.6695 278.629 56.6424 269.543C79.0233 228.653 112.161 194.456 152.002 171.005C158.093 167.42 164.761 164.582 170.391 160.339C175.308 154.652 180.219 147.968 185.298 142.094C195.475 130.499 206.342 119.55 217.837 109.307C378.178 -33.9666 667.411 -35.4723 829.806 104.128C844.214 116.512 859.04 129.937 871.488 144.357L873.743 146.888C884.573 158.841 894.579 171.542 903.679 184.902L906.356 188.719C919.146 207.233 931.661 229.34 940.008 250.285C1017.51 261.042 1029.21 362.118 1020.65 425.49C1015.09 466.591 1000.63 498.496 962.585 517.735L960.218 518.526C957.47 519.969 952.767 521.453 949.719 522.162C944.095 538.499 938.115 553.451 930.104 568.635C889.154 646.221 819.357 706.761 739.371 739.721C735.615 741.272 731.727 742.813 727.838 744.049C737.228 751.414 750.614 763.759 757.551 773.58L759.698 776.367C777.71 799.8 793.869 830.479 790.988 861.132C788.011 892.809 747.718 920.87 717.98 907.574L715.573 906.498C708.646 903.711 701.002 897.354 695.978 891.831C694.543 943.104 684.105 1026.45 616.781 1023.51C601.711 1022.76 587.557 1015.95 577.424 1004.59C562.955 988.449 550.618 954.502 547.366 932.848C530.179 936.313 504.472 936.499 487.371 933.293C477.963 977.377 458.198 1032.46 402.896 1020.67C386.413 1017.16 371.773 1006.47 363.424 991.656C335.576 942.245 338.357 878.38 344.21 824.133C319.108 837.487 294.086 844.851 265.597 845.161C263.638 862.316 261.805 879.486 260.099 896.672C258.858 908.463 258.412 921.594 254.671 932.791C247.675 953.726 227.537 965.021 206.249 962.115C200.73 961.329 195.363 959.684 190.339 957.238L187.84 955.94C161.317 939.959 164.41 914.235 167.586 887.466C168.643 878.033 169.829 868.615 171.144 859.213C167.621 857.936 164.224 856.327 160.998 854.403C114.073 826.486 115.076 748.3 140.508 706.047C151.54 687.719 165.444 676.579 185.903 671.33Z" fill="black"/>
<path d="M715.574 906.498C716.378 906.017 718.485 904.859 719.295 904.828C724.018 904.647 748.203 903.581 751.058 904.792C743.861 908.107 724.079 902.288 717.982 907.574L715.574 906.498Z" fill="black"/>
<path d="M187.842 955.94C189.649 953.473 191.11 954.042 193.966 954.14C196.235 954.12 198.609 953.877 200.684 954.642C199.059 955.547 196.197 955.356 194.185 955.397C192.284 956.054 191.973 956.116 190.34 957.238L187.842 955.94Z" fill="black"/>
<path d="M948.543 515.616C953.459 515.636 958.895 514.105 962.585 517.736L960.218 518.527C956.818 517.048 952.772 517.022 948.543 515.616Z" fill="black"/>
<path d="M906.357 188.72C905.278 190.092 904.917 190.775 903.36 191.568L902.632 191.145C902.296 188.829 903.019 187.183 903.68 184.902L906.357 188.72Z" fill="black"/>
<path d="M873.744 146.888C872.629 148.934 872.924 149.192 871.25 150.092L870.436 149.576C869.774 147.386 870.125 146.148 871.489 144.357L873.744 146.888Z" fill="black"/>
<path d="M759.7 776.368C758.636 777.645 758.275 778.338 756.712 778.855L755.812 778.317C755.369 776.362 756.127 774.873 757.552 773.58L759.7 776.368Z" fill="black"/>
<path d="M202.645 150.353C280.551 63.9449 395.083 23.7912 508.117 19.3782C628.89 14.6629 745.383 48.7675 835.237 133.191C872.823 168.502 906.897 214.523 926.334 262.674L924.181 268.765C922.059 277.421 919.407 287.226 918.165 296.016C912.027 339.617 911.534 396.75 919.804 440.026C923.494 461.065 928.344 486.84 936.324 506.642C908.327 594.205 845.757 667.214 764.133 708.37C635.853 773.053 468.044 772.205 332.639 730.981C316.32 725.835 290.667 715.352 275.694 707.672C276.885 698.472 277.952 689.256 278.896 680.024C279.159 677.573 279.885 669.184 280.382 667.121C280.813 661.422 281.486 655.412 282.045 649.702C331.541 647.975 377.925 633.055 418.067 603.064C433.521 638.997 467.605 666.433 506.519 669.717C533.402 672.241 560.137 663.501 580.525 645.524C598.918 629.522 618.482 603.24 621.902 578.436C623.775 564.871 611.754 558.215 600.303 560.046C596.989 560.573 591.564 560.526 588.006 560.728L551.958 562.75C521.67 564.131 491.354 564.617 461.041 564.214C471.722 551.254 480.322 541.158 489.098 526.476C495.512 515.739 499.465 507.206 504.896 496.232C536.196 497.426 575.649 495.849 607.234 494.928C638.433 494.323 669.606 492.829 700.723 490.434C727.636 488.464 755.664 486.125 781.844 479.27C792.547 476.468 804.044 472.23 812.487 464.735C825.471 453.217 827.237 435.623 828.321 419.18C831.222 375.215 822.448 296.697 792.827 262.659C781.523 249.67 766.346 241.934 750.177 237.028C696 220.59 640.871 235.379 586.23 240.287C549.846 243.847 513.252 244.589 476.759 242.506C459.468 219.761 442.468 201.691 419.023 185.184C369.922 150.827 310.525 135.04 251.158 140.569C241.628 141.406 232.223 143.086 222.822 144.827C215.661 146.512 209.696 148.207 202.645 150.353Z" fill="#88E4FF"/>
<path d="M919.803 440.025C923.493 461.065 928.343 486.84 936.323 506.642C908.326 594.205 845.756 667.214 764.132 708.37C635.852 773.053 468.043 772.205 332.638 730.981C316.319 725.835 290.667 715.352 275.693 707.672C276.884 698.472 277.952 689.256 278.896 680.024C279.158 677.573 279.885 669.184 280.381 667.121C280.358 668.838 280.258 669.298 280.858 670.937C287.809 675.23 299.6 680.49 307.284 683.81C325.007 691.578 343.15 698.311 361.626 703.985C479.766 740.073 628.681 735.31 738.832 675.525C815.072 634.146 874.217 574.475 905.069 491.691C909.013 481.121 912.54 470.286 915.324 459.326C916.851 453.317 917.91 446.303 919.635 440.574L919.803 440.025Z" fill="#70C5DE"/>
<path d="M202.645 150.353C280.551 63.9449 395.083 23.7912 508.117 19.3782C628.89 14.6629 745.383 48.7675 835.237 133.191C872.823 168.502 906.897 214.523 926.334 262.674L924.181 268.765C910.913 239.762 887.226 205.472 865.998 182.146C781.793 89.6267 671.117 45.0237 547.896 42.0582C453.851 39.7946 361.389 56.9212 278.797 104.812C260.224 115.581 238.423 130.015 222.822 144.827C215.661 146.512 209.696 148.207 202.645 150.353Z" fill="#C1F1FF"/>
<path d="M687.627 82.8885C712.591 79.9856 754.498 100.502 774.988 115.467C790.979 127.15 815.688 148.658 820.472 169.235C821.887 175.326 817.123 179.212 811.281 179.662C790.969 177.683 765.348 153.538 749.174 140.434C741.56 134.265 733.687 128.436 725.579 122.962C713.588 114.956 700.773 109.056 687.795 102.947C676.557 97.6605 671.982 85.5747 687.627 82.8885Z" fill="#C1F1FF"/>
<path d="M847.527 537.342C868.002 536.463 843.909 577.697 839.97 583.763C817.54 618.362 770.264 661.686 729.839 670.281C726.586 670.374 723.563 670.633 721.36 667.835C720.932 666.5 720.947 665.559 721.487 664.271C724.815 656.292 753.281 639.426 761.75 632.605C775.756 621.289 788.693 608.665 800.379 594.898C809 584.803 815.83 574.708 823.368 563.801C829.974 554.243 836.814 542.234 847.527 537.342Z" fill="#C1F1FF"/>
<path d="M875.46 458.794C895.619 458.525 883.343 511.829 863.566 519.716C843.783 520.016 858.502 475.435 865.362 467.383C869.302 462.758 869.408 461.426 875.46 458.794Z" fill="#C1F1FF"/>
<path d="M641.969 69.4274C660.052 68.1376 675.906 86.6699 656.301 92.0299C634.503 93.1387 619.83 73.1862 641.969 69.4274Z" fill="#C1F1FF"/>
<path d="M692.294 673.533C693.674 673.544 696.188 673.875 697.648 674.014C707.863 680.262 698.814 687.616 691.928 691.019C688.152 692.881 685.429 693.429 681.393 694.111C656.79 693.951 675.087 675.431 692.294 673.533Z" fill="#C1F1FF"/>
<path d="M82.4731 261.203C86.9808 252.475 103.195 233.785 110.18 226.661C153.444 181.994 212.69 157.072 274.364 157.596C336.667 157.442 396.423 182.711 440.224 227.736C442.067 226.665 443.081 225.635 444.909 225.751C446.366 227.542 445.969 230.791 445.163 232.868C470.993 262.274 488.727 292.807 499.099 331.034C500.544 336.35 503.74 349.122 503.974 354.144C505.267 358.448 506.412 369.696 506.779 374.428C509.847 414.21 504.422 446.276 490.303 482.883C473.864 533.266 424.913 583.209 378.823 606.818C323.933 634.771 260.374 639.462 202.083 619.866C146.117 601.072 98.1059 559.006 70.8289 505.494C70.4833 504.816 70.2197 504.061 69.9555 503.348C68.5381 501.263 64.0075 491.111 63.0094 488.743C59.3791 480.301 55.2953 469.237 52.6972 460.388C37.371 407.342 40.7061 350.528 62.1295 299.709C65.686 291.163 69.7744 282.856 74.3701 274.837C76.4756 271.134 79.6204 266.434 81.4557 262.9L81.8644 262.105C82.1596 261.88 82.3733 261.563 82.4731 261.203Z" fill="white"/>
<path d="M82.4731 261.203C86.9808 252.475 103.195 233.785 110.18 226.661C153.444 181.994 212.69 157.072 274.364 157.596C336.667 157.442 396.423 182.711 440.224 227.736C442.067 226.665 443.081 225.635 444.909 225.751C446.366 227.542 445.969 230.791 445.163 232.868C470.993 262.274 488.727 292.807 499.099 331.034C500.544 336.35 503.74 349.122 503.974 354.144L503.104 353.733C501.882 350.607 501.75 348.394 500.859 345.241C497.527 333.489 494.739 324.404 489.994 313.064C467.617 258.103 425.023 214.18 371.272 190.635C314.382 165.701 250.05 164.878 192.561 188.351C136.924 211.183 92.2886 255.233 68.2012 311.077C49.9672 354.082 43.3382 402.763 52.971 448.755C54.311 455.151 55.5809 461.493 57.1128 467.844C58.2991 472.762 62.9957 484.361 63.0094 488.743C59.3791 480.301 55.2953 469.237 52.6972 460.388C37.371 407.342 40.7061 350.528 62.1295 299.709C65.686 291.163 69.7744 282.856 74.3701 274.837C76.4756 271.134 79.6204 266.434 81.4557 262.9L81.8644 262.105C82.1596 261.88 82.3733 261.563 82.4731 261.203Z" fill="white"/>
<path d="M440.225 227.736C442.067 226.665 443.081 225.634 444.909 225.751C446.367 227.542 445.97 230.791 445.164 232.868L440.225 227.736Z" fill="black"/>
<path d="M69.9551 503.348C70.3714 503.456 70.7877 503.565 71.204 503.668C74.331 507.868 78.5344 514.912 81.3321 518.951C87.3234 527.593 93.8613 536.271 101.017 543.744C146.125 590.331 207.631 616.753 271.947 617.167C348.205 618.253 413.563 584.735 462.206 525.705C467.995 518.651 473.327 511.224 478.168 503.467C480.815 499.231 487.38 485.41 490.303 482.883C473.864 533.266 424.913 583.209 378.822 606.818C323.933 634.771 260.373 639.462 202.083 619.867C146.116 601.073 98.1054 559.006 70.8284 505.494C70.4829 504.817 70.2192 504.062 69.9551 503.348Z" fill="white"/>
<path d="M260.554 189.747C371.718 182.187 467.884 267.587 475.402 380.543C482.919 493.5 398.943 591.276 287.789 598.998C176.526 606.719 80.1859 521.288 72.6611 408.218C65.1369 295.152 149.28 197.314 260.554 189.747Z" fill="black"/>
<path d="M222.834 286.491C229.105 274.835 235.666 264.526 247.553 258.011C283.238 238.452 326.394 238.326 365.678 243.009C386.724 245.518 388.378 246.581 403.439 261.765C426.782 285.037 443.531 314.263 451.929 346.378C464.297 394.445 458.336 440.777 435.551 484.581C400.622 483.498 365.712 481.866 330.833 479.689C299.593 477.689 265.753 474.953 235.278 466.888C219.85 462.805 206.565 452.877 204.317 435.685C198.264 389.408 202.486 333.091 221.138 290.125L222.834 286.491Z" fill="white"/>
<path d="M350.036 312.076C377.858 310 409.003 325.782 426.45 347.635C435.227 358.627 454.525 392.62 439.196 404.493C436.315 406.722 432.676 407.685 429.092 407.167C420.177 405.905 415.202 397.416 410.007 390.875C396.931 374.415 379.656 363.024 358.723 360.809C333.288 358.69 311.601 373.333 296.681 392.748C292.321 398.423 285.659 406.253 278.274 406.959C270.803 407.638 263.589 400.123 263.582 392.672C263.567 375.726 273.639 357.678 284.23 345.195C301.144 325.263 324.137 313.589 350.036 312.076Z" fill="black"/>
<path d="M321.038 323.507C323.341 323.048 322.315 322.883 324.258 323.653L323.819 324.164L321.303 324.275C319.98 324.213 318.474 324.058 317.137 323.949L321.038 323.507Z" fill="black"/>
<path d="M429.039 495.29C406.595 532.319 366.721 561.839 325.881 574.184C278.694 588.241 227.937 582.562 184.885 558.421C144.161 535.867 111.078 494.059 98.0263 448.854C83.7321 400.378 88.9844 348.116 112.627 303.577C136.084 260.227 175.526 228.121 222.277 214.321C270.513 200.457 322.206 206.823 365.787 231.993C332.831 228.127 310.5 228.331 278.176 234.531L273.404 235.87C260.177 239.304 242.196 246.486 231.931 255.934C202.198 283.301 194.114 339.888 191.422 378.653C190.429 399.727 189.853 426.371 195.615 446.631C204.901 479.285 255.831 483.396 283.451 486.544C314.267 489.916 345.186 492.233 376.155 493.495C392.956 494.183 412.584 494.136 429.039 495.29Z" fill="#88E4FF"/>
<path d="M273.404 235.87C263.527 235.237 248.914 237.882 239.225 240.313C199.204 250.46 164.81 276.389 143.647 312.366C122.259 348.575 115.868 391.922 125.875 432.91C140.155 492.063 186.517 537.672 245.159 550.26C251.671 551.625 258.269 552.536 264.905 552.975C269.318 553.244 275.5 552.484 279.2 554.894C281.472 556.363 283.02 558.752 283.456 561.452C283.893 564.136 283.218 566.887 281.592 569.049C276.835 575.328 262.021 572.462 254.749 571.506C222.93 567.647 192.833 554.729 167.929 534.238C132.077 504.734 109.044 462.122 103.776 415.551C98.6066 366.73 111.367 319.737 141.968 281.501C170.851 245.255 212.768 222.21 258.428 217.473C265.97 216.705 283.22 213.077 282.458 226.484C282.251 230.14 280.612 231.954 278.176 234.532L273.404 235.87Z" fill="#C1F1FF"/>
<path d="M221.139 290.125C219.421 288.918 217.757 285.842 218.267 283.706C220.016 283.634 221.135 285.116 222.835 286.491L221.139 290.125Z" fill="black"/>
<path d="M265.793 242.233C269.19 241.686 276.024 241.764 279.201 243.436C276.448 244.044 268.434 243.424 265.793 242.233Z" fill="black"/>
<path d="M452.423 451.307C453.466 453.711 452.968 457.402 452.662 460.003C451.54 457.415 451.396 453.942 452.423 451.307Z" fill="black"/>
<path d="M484.254 254.013C514.315 254.805 544.063 255.14 574.045 252.64C604.337 250.115 634.391 246.005 664.474 242.138C696.319 238.045 749.499 240.386 775.17 261.641L777.074 262.718C779.598 266.545 786.667 271.338 789.914 276.864C811.209 313.107 817.194 358.828 817.952 400.442C818.232 415.838 818.202 442.916 806.979 454.576C800.77 460.418 792.912 464.604 784.84 466.938C754.14 475.808 720.275 477.93 688.548 480.07C628.767 483.667 568.884 485.34 508.996 485.087C512.386 471.937 516.269 462.463 519.348 447.956C533.578 381.139 520.941 311.316 484.254 254.013Z" fill="white"/>
<path d="M654.825 312.581C660.627 311.781 672.093 312.534 677.692 313.493C702.467 317.988 724.53 332.149 739.172 352.951C747 364.145 755.174 381.526 752.955 395.81C751.855 402.896 746.379 407.023 739.371 406.932C728.978 406.798 724.27 396.863 718.229 389.918C714.58 385.717 711.313 382.052 707.032 378.394C697.062 369.817 685.046 364.055 672.195 361.685C649.216 358.221 629.036 368.278 612.938 384.556C606.526 391.04 598.052 405.385 588.876 406.843C584.931 407.459 580.91 406.394 577.765 403.899C562.955 392.355 582.407 358.397 591.151 347.935C607.406 328.489 629.673 315.037 654.825 312.581Z" fill="black"/>
<path d="M374.117 760.956C393.092 765.3 409.438 767.865 428.429 771.01C482.584 779.223 544.176 778.25 598.654 773.456C600.074 773.048 615.769 771.315 618.355 770.994C630.732 769.531 643.029 767.421 655.192 764.664C657.64 764.137 660.119 763.625 662.557 763.066C663.799 767.359 665.142 772.525 666.532 776.694C671.479 797.313 675.062 818.248 677.255 839.354C681.317 879.518 682.416 977.806 641.863 999.951C636.957 1004.29 622.946 1006.04 616.68 1005.54C581.665 1002.75 570.107 956.219 564.055 928.127C571.552 925.236 582.622 921.652 588.286 915.865C592.653 911.401 589.559 904.585 584.49 902.377C578.723 899.868 568.096 908.676 562.31 910.15C532.379 920.1 497.379 919.619 467.863 908.185C460.026 905.154 447.617 894.097 442.484 908.293C439.228 917.804 463.845 925.592 470.282 927.909C464.604 960.233 449.72 1012.75 407.67 1003.91C404.813 1003.31 401.56 1002.43 398.934 1001.13C390.959 997.469 383.477 991.118 378.972 983.252C352.935 937.756 355.277 871.755 361.439 821.305C363.162 807.196 367.385 788.961 370.31 775.308C371.172 771.191 372.991 765.166 374.117 760.956Z" fill="#88E4FF"/>
<path d="M428.428 771.01C482.583 779.222 544.175 778.25 598.652 773.456C599.711 777.2 597.161 787.218 596.596 791.562L596.245 791.955C593.817 802.035 589.68 811.613 584.02 820.25C557.871 860.036 505.973 870.757 466.372 844.107C448.317 831.958 434.421 811.235 430.41 789.488L430.37 789.095C428.752 782.982 428.621 777.319 428.428 771.01Z" fill="white"/>
<path d="M428.428 771.01C482.583 779.222 544.175 778.25 598.652 773.456C599.711 777.2 597.161 787.218 596.596 791.562L596.245 791.955C593.293 791.35 573.989 793.579 569.922 793.941C561.606 794.681 553.275 795.203 544.933 795.508C518.376 796.418 491.79 795.622 465.334 793.114C454.016 792.007 442.839 790.518 431.582 788.966C431.191 789.142 430.8 789.313 430.41 789.488L430.37 789.095C428.752 782.982 428.621 777.319 428.428 771.01Z" fill="#C8C6DC"/>
<path d="M370.31 775.308C373.031 776.254 375.765 777.159 378.51 778.033C365.805 829.585 360.165 863.242 370.107 916.956C374.189 939.013 379.532 961.831 389.551 982.171C391.125 986.107 398.682 999.134 398.934 1001.13C390.959 997.469 383.477 991.118 378.972 983.252C352.935 937.756 355.277 871.755 361.439 821.305C363.162 807.196 367.385 788.961 370.31 775.308Z" fill="#C1F1FF"/>
<path d="M666.532 776.693C671.479 797.313 675.062 818.248 677.255 839.354C681.317 879.517 682.416 977.806 641.863 999.951C642.133 998.157 649.106 985.232 650.719 981.204C667.764 945.943 676.288 880.624 672.68 841.283C670.69 819.577 665.489 799.32 660.536 778.395C662.129 777.743 664.786 777.154 666.532 776.693Z" fill="#C1F1FF"/>
<path d="M655.193 764.665C657.641 764.137 660.119 763.625 662.557 763.066C663.799 767.359 665.143 772.526 666.532 776.694C664.786 777.154 662.13 777.744 660.537 778.395L660.247 778.313C642.866 783.614 624.62 786.458 606.731 789.489C604.196 789.913 598.791 790.477 596.598 791.563C597.163 787.218 599.712 777.201 598.654 773.456C600.074 773.048 615.77 771.315 618.355 770.995C630.733 769.531 643.029 767.421 655.193 764.665Z" fill="#70C5DE"/>
<path d="M374.117 760.956C393.093 765.3 409.438 767.865 428.429 771.01C428.623 777.319 428.753 782.982 430.372 789.095C427.883 788.092 413.17 785.817 409.373 785.087C399 783.143 388.704 780.79 378.51 778.033C375.765 777.159 373.031 776.254 370.311 775.308C371.172 771.191 372.992 765.166 374.117 760.956Z" fill="#70C5DE"/>
<path d="M143.983 745.787C152.975 705.319 178.356 678.87 221.247 689.033C238.809 693.191 251.753 702.241 261.382 717.736C270.429 731.824 275.443 758.903 271.932 775.163C271.72 784.477 269.35 794.065 265.839 802.64C264.542 807.951 258.648 817.426 255.253 821.734C229.738 854.114 168.384 857.476 149.642 815.957C145.979 807.843 143.2 798.746 142.401 789.83C140.048 775.949 140.986 759.57 143.983 745.787Z" fill="#88E4FF"/>
<path d="M266.023 784.964C267.49 783.112 270.517 777.558 271.933 775.163C271.721 784.477 269.351 794.066 265.84 802.64C264.543 807.952 258.649 817.426 255.254 821.734C229.739 854.115 168.385 857.476 149.643 815.958C145.98 807.843 143.201 798.746 142.402 789.83C143.832 791.351 145.628 794.267 146.87 796.103C160.748 816.692 186.409 823.803 209.811 820.157C233.813 816.423 251.394 805.185 265.701 785.558L266.023 784.964Z" fill="#70C5DE"/>
<path d="M266.023 784.964C267.49 783.112 270.516 777.558 271.933 775.163C271.72 784.477 269.351 794.066 265.84 802.64L265.047 801.963C264.35 799.274 265.43 788.951 265.701 785.558L266.023 784.964Z" fill="#88E4FF"/>
<path d="M143.984 745.787C152.976 705.319 178.358 678.87 221.248 689.033C238.81 693.191 251.754 702.241 261.384 717.736C270.43 731.824 275.444 758.903 271.933 775.163C270.517 777.557 267.49 783.112 266.024 784.963C266.286 779.636 266.359 774.299 266.243 768.967C265.028 728.731 242.096 699.459 200.156 700.405C178.763 700.886 163.026 713.407 152.097 731.348C150.119 734.596 146.24 743.563 143.984 745.787Z" fill="#C1F1FF"/>
<path d="M597.458 571.258C604.033 570.73 613.439 569.267 610.96 579.76C608.146 591.66 601.926 602.753 595.091 612.704C562.229 660.501 508.423 674.656 460.588 639.809C444.993 627.128 435.241 614.602 426.844 596.346C435.799 589.26 441.794 582.77 449.986 575.902C499.185 576.404 548.38 574.852 597.458 571.258Z" fill="white"/>
<path d="M707.766 750.84C711.023 753.121 713.191 754.76 716.235 757.325C722.144 761.375 726.755 766.676 732.007 771.413C751.51 789.007 783.497 839.535 771.939 866.267C769.394 873.296 764.122 879.512 758.03 883.634C754.803 887.508 747.53 890.171 742.695 891.8C723.711 899.17 704.035 878.137 696.559 862.864C695.185 860.061 693.882 833.624 693.144 827.769C690.757 808.835 687.276 790.067 682.716 771.553L679.352 759.539L707.766 750.84Z" fill="#88E4FF"/>
<path d="M682.717 771.553C685.363 773.57 686.931 776.497 688.962 779.129C698.458 791.422 704.148 806.043 706.154 821.522C707.996 835.584 707.93 850.173 715.62 862.606C722.13 873.125 735.143 880.314 747.445 878.406C752.544 877.609 756.341 875.458 761.049 874.01C760.58 875.489 758.066 882.755 758.031 883.634C754.804 887.508 747.531 890.171 742.696 891.8C723.712 899.17 704.037 878.137 696.56 862.865C695.186 860.062 693.883 833.624 693.145 827.769C690.758 808.836 687.277 790.067 682.717 771.553Z" fill="#70C5DE"/>
<path d="M716.235 757.325C722.144 761.375 726.755 766.676 732.008 771.413C751.51 789.007 783.498 839.535 771.94 866.267C769.395 873.296 764.122 879.512 758.03 883.634C758.066 882.755 760.58 875.489 761.048 874.009L761.282 873.746C762.641 867.788 764.524 857.796 763.827 851.45C761.089 826.574 743.912 800.163 730.71 779.455C726.882 773.451 718.734 763.526 715.971 758.127L716.235 757.325Z" fill="#C1F1FF"/>
<path d="M761.281 873.746C766.305 871.925 767.348 867.498 771.939 866.268C769.394 873.296 764.121 879.512 758.029 883.634C758.065 882.755 760.579 875.489 761.047 874.01L761.281 873.746Z" fill="#83BFE9"/>
<path d="M934.766 268.383C949.368 268.947 965.955 274.224 973.141 288.204C970.016 295.795 966.347 301.963 963.827 310.333C952.315 348.573 953.307 405.259 965.064 443.321C956.407 452.443 946.767 455.223 934.517 455.372L933.677 455.379C922.257 400.115 920.48 323.389 934.766 268.383Z" fill="white"/>
<path d="M981.482 295.734C999.29 314.644 1005.73 359.236 1005.21 384.91C1005.19 385.964 1005.15 387.016 1005.11 388.068C1006 412.075 1002.46 450.13 988.938 470.035C982.612 462.409 979.095 451.575 976.047 442.201C974.5 435.8 972.856 430.761 971.573 424.07C964.55 387.41 964.178 352.802 973.227 316.644C975.797 308.241 977.421 303.665 981.482 295.734Z" fill="#88E4FF"/>
<path d="M1004.62 389.074L1005.11 388.068C1006 412.075 1002.46 450.13 988.938 470.035C982.612 462.409 979.095 451.575 976.047 442.201C993.443 433.032 998.038 415.149 1003.11 397.123C1003.83 394.553 1004.5 391.734 1004.62 389.074Z" fill="#70C5DE"/>
<path d="M981.482 295.734C999.29 314.644 1005.73 359.236 1005.21 384.91C1005.19 385.964 1005.15 387.016 1005.11 388.068L1004.62 389.074C1003.46 386.866 1001.6 377.075 1000.99 374.076C997.625 357.502 993.595 339.301 983.273 325.655C981.283 323.024 976.372 318.892 973.629 317.012C973.496 316.89 973.359 316.767 973.227 316.644C975.797 308.241 977.42 303.665 981.482 295.734Z" fill="#C1F1FF"/>
<path d="M286.003 732.439C293.144 735.191 300.19 738.449 307.409 741.185C323.554 747.381 340.042 752.614 356.789 756.855C355.438 762.291 354.08 767.638 352.947 773.131C351.284 781.659 349.933 790.166 348.313 798.637C330.655 817.256 297.659 824.325 273.209 826.56C279.46 816.009 281.525 810.962 285.189 799.186C291.482 775.049 291.735 756.488 286.003 732.439Z" fill="#88E4FF"/>
<path d="M285.189 799.186C285.429 799.564 285.905 800.205 286.318 800.298C307.45 804.952 327.407 796.083 342.205 780.847C345.253 777.708 349.345 774.031 352.947 773.131C351.284 781.659 349.933 790.166 348.313 798.638C330.655 817.256 297.659 824.326 273.209 826.56C279.46 816.01 281.525 810.962 285.189 799.186Z" fill="#70C5DE"/>
<path d="M233.177 858.122C238.662 855.816 241.757 854.285 246.993 851.404C245.175 875.08 242.45 900.541 239.061 924.057C236.49 941.894 213.624 950.396 198.523 941.573C178.305 930.806 182.292 911.458 184.447 892.55C185.533 882.647 186.707 872.758 187.969 862.875L196.157 863.703C211.073 864.101 219.126 862.875 233.177 858.122Z" fill="#88E4FF"/>
<path d="M233.179 858.122C238.664 855.816 241.759 854.285 246.994 851.404C245.176 875.08 242.452 900.541 239.062 924.057C236.492 941.894 213.626 950.396 198.525 941.573C198.788 940.244 195.894 934.871 195.049 932.864C195.963 932.611 196.015 932.507 196.836 932.6C209.295 934.126 220.579 928.804 225.676 916.77C230.351 905.728 230.148 891.464 231.74 879.637C232.247 875.867 234.033 860.501 233.179 858.122Z" fill="#70C5DE"/>
<path d="M187.969 862.875L196.157 863.703C195.133 885.465 189.138 912.782 195.047 932.864C195.892 934.871 198.786 940.244 198.523 941.573C178.305 930.806 182.292 911.458 184.447 892.55C185.533 882.646 186.707 872.758 187.969 862.875Z" fill="#C1F1FF"/>
<path d="M933.678 455.38L934.518 455.373C946.768 455.224 956.407 452.444 965.064 443.322C968.948 456.2 972.699 466.712 979.844 477.899C982.689 482.35 972.617 492.006 969.126 493.744C962.27 498.517 955.14 502.039 947.007 503.42C941.643 491.013 936.609 468.776 933.678 455.38Z" fill="#C8C6DC"/>
<path d="M215.97 642.457C235.408 646.16 244.799 648.027 264.718 649.284C263.316 662.818 261.626 676.787 260.375 690.28C254.239 684.193 252.896 684.86 247.618 680.857C236.525 674.449 225.024 671.962 212.615 670.183C213.017 664.416 214.005 658.045 214.774 652.273L215.97 642.457Z" fill="#70C5DE"/>
<path d="M214.774 652.272C216.27 652.624 218.298 653.234 219.753 653.126C221.399 653.219 227.36 653.964 228.345 653.803C230.985 652.603 242.972 656.865 245.851 657.951C248.21 658.846 247.727 658.494 249.139 660.283C248.985 668.067 248.746 673.052 247.618 680.857C236.525 674.449 225.024 671.961 212.615 670.182C213.017 664.416 214.005 658.044 214.774 652.272Z" fill="#88E4FF"/>
<path d="M219.752 653.125C221.399 653.218 227.359 653.963 228.344 653.803L228.475 653.751C231.356 652.736 243.015 656.881 245.85 657.95C248.209 658.845 247.726 658.494 249.138 660.283C244.235 660.93 233.952 658.581 228.981 657.495H228.98C225.035 656.44 222.388 656.238 219.752 653.125Z" fill="#70C5DE"/>
<path d="M23.5459 349.052C26.0262 349.545 27.6181 350.418 29.7614 348.936C26.3698 372.677 25.2283 387.898 26.6932 411.814C27.0929 413.016 27.5353 418.655 27.6527 420.105C28.7797 434.023 31.7978 447.166 34.9159 460.771C25.6435 442.955 18.0454 422.528 17.8462 402.034C16.4661 383.176 18.6343 367.082 23.5459 349.052Z" fill="#88E4FF"/>
<path d="M17.8457 402.035L17.9777 402.496C22.0979 417.431 21.0414 429.938 28.8438 446.608L29.2395 444.941L29.8638 445.402L29.6569 446.297C29.4318 447.302 29.3902 447.443 29.52 448.495L30.2325 448.613C31.8349 445.668 24.2268 419.147 25.9479 413.153C25.9704 413.075 26.5592 412.152 26.6927 411.816C27.0924 413.018 27.5348 418.657 27.6522 420.107C28.7792 434.025 31.7973 447.167 34.9154 460.772C25.643 442.956 18.0449 422.529 17.8457 402.035Z" fill="#70C5DE"/>
<path d="M166.736 624.594C168.171 625.075 175.832 628.736 177.868 629.641C185.482 633.029 191.287 634.948 199.178 637.311C198.844 643.176 197.832 650.235 197.324 656.317L197.231 657.01L196.545 657.227C187.434 649.485 174.365 634.208 166.736 624.594Z" fill="#70C5DE"/>
<path d="M36.6877 320.148C33.7819 330.415 31.8495 338.491 29.7604 348.936C27.6171 350.418 26.0252 349.546 23.5449 349.053C27.1165 336.923 29.8239 330.705 36.6877 320.148Z" fill="#83BFE9"/>
<path d="M39.8713 355.594C41.3536 358.625 39.5986 376.567 39.6974 382.319C39.6979 382.862 39.7214 382.494 39.4618 383.399C38.906 377.517 38.7363 361.122 39.8713 355.594Z" fill="black"/>
<path d="M775.172 261.64C776.124 259.119 778.373 256.891 781.223 257.577L781.61 258.401C780.796 260.1 778.643 261.671 777.075 262.716L775.172 261.64Z" fill="black"/>
<path d="M639.368 16.85C641.908 16.5449 644.508 16.259 646.977 17.001C645.45 17.8766 643.297 17.7534 641.389 17.8911C639.511 18.1029 636.472 18.4054 634.752 17.6823C636.024 16.7879 637.729 16.9379 639.368 16.85Z" fill="black"/>
<path d="M479.082 937.958C480.359 939.018 480.607 948.219 480.198 949.879L479.499 949.382L479.313 950.618C478.416 948.632 478.94 940.44 479.082 937.958Z" fill="black"/>
<path d="M362.787 977.688L363.872 978.799C364.492 981.659 364.127 982.999 363.755 985.885C362.198 983.961 362.717 980.258 362.787 977.688Z" fill="black"/>
<path d="M81.8638 262.106C81.2077 262.604 80.2931 262.547 79.7023 261.971C79.1114 261.395 79.0177 260.468 79.4809 259.782C79.944 259.096 80.828 258.851 81.5701 259.203C82.3121 259.556 82.6938 260.402 82.4725 261.204C82.3727 261.564 82.1589 261.881 81.8638 262.106Z" fill="black"/>
<path d="M330.979 53.0181C333.18 52.7585 335.1 52.3261 337.218 52.8593L337.188 53.9361C335.095 54.2914 332.907 53.8849 330.979 53.0181Z" fill="black"/>
<path d="M134.845 723.834C135.92 726.378 135.43 728.949 135.131 731.669C133.765 729.006 133.807 726.565 134.845 723.834Z" fill="black"/>
<path d="M142.813 707.242C143.999 709.626 143.606 711.121 143.279 713.759C141.873 711.576 142.414 709.74 142.813 707.242Z" fill="black"/>
<path d="M745.963 731.545C747.632 731.312 748.238 731.281 749.933 731.266L750.391 732.036C748.833 732.9 747.444 732.186 745.963 731.545Z" fill="black"/>
<path d="M315.4 61.2131C317.044 60.9602 317.669 60.7429 319.303 61.1608L319.369 62.0674C317.708 62.2396 316.986 62.4346 315.359 61.9692L315.4 61.2131Z" fill="black"/>
<path d="M69.2523 253.781C70.6901 255 70.2824 256.505 70.3099 258.283C68.6818 256.872 69.0864 255.813 69.2523 253.781Z" fill="black"/>
<path d="M299.898 69.577L301.557 69.248L302.153 70.016C301.675 70.2364 301.078 70.2938 300.529 70.3972L299.898 69.577Z" fill="black"/>
</g>
<defs>
<clipPath id="clip0_74_656">
<rect width="1024" height="1024" fill="white"/>
</clipPath>
</defs>
</svg>
