<svg width="2064" height="2247" viewBox="0 0 2064 2247" fill="none" xmlns="http://www.w3.org/2000/svg">
<path d="M1213.59 18.1691C1225.04 15.1977 1268.41 19.0239 1281.4 20.588C1291.7 21.2793 1302.84 20.0991 1313.03 20.8097C1440.07 29.6667 1566.31 64.2449 1678.68 134.056C1705.56 150.511 1731.38 168.933 1755.97 189.198C1762.07 194.145 1774.77 209.133 1780.58 210.143C1781.5 210.994 1782.18 211.629 1782.47 212.908C1782.49 219.904 1797.11 224.392 1798.26 227.133C1803.3 239.228 1814.25 245.406 1822.85 254.861C1827.01 259.982 1835.26 267.246 1838.71 272.849C1848.36 288.495 1866.53 278.287 1881.62 283.317C1886.79 285.041 1891.89 283.015 1897.6 286.76C1903.45 290.599 1911.97 292.334 1918.12 296.127C1955.36 315.799 1986.51 355.659 1999.54 398.31C2019.81 464.862 2027.03 540.378 2005.57 607.848C2003.02 615.844 2000.12 624.892 1996.98 632.432C1991.06 646.634 1972.28 665.544 1959.83 672.427C1953.92 675.697 1933.9 682.322 1926.55 684.926C1924.52 688.449 1923.94 700.205 1921.92 706.134C1892.75 791.872 1844.87 867.742 1776.09 921.526C1730.85 956.904 1681.88 983.734 1629.67 1006.04L1629.29 1007.45C1660.41 1021.3 1681.74 1035.52 1708.52 1058.09C1721.36 1068.91 1730.23 1074.66 1742.17 1088.39C1768.91 1119.13 1791.56 1150.15 1812.2 1186.03C1815.97 1192.57 1819.54 1208.09 1823.58 1215.39C1827.08 1221.72 1831.2 1227.61 1834.9 1233.76C1842.15 1245.91 1848.84 1258.44 1854.98 1271.3C1877.28 1318.71 1899.26 1406.93 1898.42 1460.41C1902.52 1467.87 1907.01 1476.31 1909.6 1484.5C1916.74 1507.11 1923.05 1530.67 1925.42 1554.51C1926.48 1565.19 1925.36 1577.64 1925.83 1588.42C1927.33 1623.43 1920.11 1659.16 1896.49 1684.51C1893.89 1688.17 1892.56 1693.17 1888.86 1695.78C1875.14 1705.46 1860.49 1712.62 1845.69 1720.05C1841.18 1722.29 1837.19 1726.45 1832.84 1728.81C1823.12 1734.09 1812.33 1738.4 1801.67 1740.86C1788.94 1743.79 1775.55 1742.59 1762.63 1742.78C1762.62 1742.79 1759.38 1745.27 1759.1 1745.48C1730.27 1747.45 1697.74 1744.37 1677.51 1716.61C1674.29 1712.17 1665.91 1693.69 1660.82 1692.42C1653.21 1690.51 1652.77 1693.93 1642.72 1688.91L1641.26 1689.64C1636.82 1711.31 1645.27 1752.97 1644.13 1776.45C1643.9 1781.4 1649.28 1794.78 1649.35 1800.49C1649.43 1807.68 1649.19 1814.8 1649.48 1821.91C1655.28 1827.98 1651.92 1837.09 1652.66 1845.12C1652.9 1847.78 1651.6 1871.98 1652.54 1873.09C1656.42 1876.52 1656.04 1888.34 1655.56 1894.85C1654.69 1906.7 1658.7 1919.33 1658.38 1930.44C1682.89 1949.44 1701.83 1986.67 1710.1 2017.84C1711.98 2024.95 1711.32 2033.01 1715.28 2037.85C1720.1 2085.53 1716.69 2116.24 1670.51 2132.92C1571.15 2168.81 1458.02 2163.96 1355.67 2147.73C1322.77 2142.51 1260.22 2124.74 1249.92 2086.06C1244.93 2068.4 1250.01 2042.87 1250.44 2024.2L1253.22 1910.75C1254.08 1879.12 1249.83 1847.77 1258.36 1817.75C1258.94 1815.73 1256.2 1809.1 1255.65 1806.75C1247.72 1772.55 1243.25 1737.89 1243.91 1702.7C1243.95 1700.92 1236.07 1699.34 1233.29 1701.97C1231.6 1709.11 1232.97 1717.42 1232.55 1724.86C1232.16 1731.67 1231 1738.41 1230.45 1745.22C1229.18 1760.74 1228.73 1776.12 1226 1791.49C1224.7 1798.74 1219.42 1811.21 1221.96 1817.62C1225.43 1826.31 1226.87 1861.76 1226.66 1872.73C1226.81 1879.69 1226.24 1886.63 1226.79 1893.58C1227.55 1903.17 1229.28 1912.6 1229.54 1922.26C1229.94 1936.2 1228.38 1950.8 1229.36 1964.63C1229.49 1966.37 1230.08 1967 1231.16 1968.31C1234.25 1972.09 1232.34 2015.66 1232.81 2024.16C1233.31 2033.2 1235.38 2042.11 1235.28 2051.19C1235.07 2069.62 1232.76 2093.09 1219.98 2106.16C1173.32 2153.93 1028.46 2162.46 966.091 2159.5C918.84 2157.25 835.372 2149.14 795.023 2124.41C787.511 2119.81 780.115 2112.94 774.401 2105.92C766.442 2096.15 763.791 2081.67 764.435 2068.86C766.137 2035.04 776.554 1992.96 794.502 1965.17C803.31 1951.53 813 1941.51 824.315 1930.5C824.24 1920.3 823.909 1909.94 824.519 1899.77C825.082 1890.39 833.492 1783.67 834.918 1781.51C839.128 1775.11 834.303 1744.58 838.389 1732.97C841.78 1723.34 839.11 1706.5 839.584 1695.87C839.979 1687.03 841.676 1678.31 842.081 1669.46C842.454 1661.34 840.936 1650.67 842.568 1642.91C843.245 1639.69 845.349 1639.31 845.548 1634.96C845.996 1625.22 844.195 1614.92 845.273 1605.27C845.466 1603.53 846.279 1602.38 847.21 1601.01C852.948 1592.57 843.804 1571.76 850.298 1561.71C849.853 1556.87 842.218 1548.37 839.119 1543.67C835.175 1537.7 836.645 1533.8 835.591 1526.27C831.955 1500.31 832.979 1473.27 833.721 1447.08C833.92 1440.02 838.692 1412.44 835.283 1406.98C833.316 1406.81 813.504 1411.79 807.111 1412.23C793.871 1413.15 782.357 1413.17 768.936 1412.88C760.73 1412.69 760.749 1407.33 754.666 1406.91C754.596 1406.93 744.42 1411.78 741.884 1412.21C718.784 1416.09 698.707 1416.16 675.459 1410.93C661.253 1407.74 638.119 1388 629.465 1375.24C627.011 1371.63 609.781 1340.24 607.376 1339.25C596.105 1334.61 573.84 1330.17 562.246 1325.09C555.18 1322 534.491 1308.96 528.454 1303.9C513.506 1291.39 495.063 1271.59 483.142 1255.83C480.817 1252.76 477.004 1243.76 474.359 1239.91C470.81 1234.75 463.851 1224.88 462.175 1218.81C454.382 1190.6 454.072 1164.24 448.63 1135.5C448.629 1135.46 448.396 1124.08 448.63 1119.7C457.042 1087.85 458.005 1085.1 469.295 1068.04C470.478 1066.25 471.446 1064.01 473.534 1063.24C480.542 1054.85 482.373 1052.14 487.28 1046.92C490.767 1043.22 495.147 1040.1 499.305 1037.03C498.495 1032.01 492.597 1018.97 490.121 1014.27C482.139 1015.62 473.931 1019.26 466.087 1020.31C428.21 1025.35 387.476 1030.77 349.424 1024.68C287.629 1014.71 227.119 993.45 175.395 954.487C163.469 945.503 144.183 928.284 133.093 917.522C120.086 904.898 103.921 885.025 93.2872 870.264C60.846 824.871 40.214 768.593 35.5001 711.171C34.3862 697.601 35.0214 653.181 36.0353 638.658C36.7352 628.631 45.7456 592.299 48.9484 581.747C70.6837 510.137 118.716 451.901 175.027 409.664C267.718 352.224 372.075 324.846 477.439 352.211C505.737 359.561 524.742 365.9 551.163 379.412C553.192 380.45 553.969 376.462 554.587 374.307C559.837 355.993 566.95 336.186 578.749 321.802C592.409 308.306 597.94 299.563 614.859 292.021C633.031 283.922 645.605 283.377 664.628 280.173C670.979 273.269 689.391 242.818 694.503 237.742C712.483 219.889 729.941 198.213 748.068 181.693C761.782 169.416 776.209 158.112 791.258 147.852C793.822 146.13 804.795 140.213 805.714 139.186C812.964 131.089 820.636 128.474 829.693 123.195C858.111 106.633 888.953 89.7849 919.339 77.8546C983.929 52.2192 1050.94 34.4997 1119.13 25.0226C1122.46 24.5887 1141.98 23.7202 1142.96 23.38C1155.61 18.9467 1205.5 23.0625 1213.59 18.1691ZM693.937 865C688.761 881.191 656.142 917.108 645.448 931.984C641.376 937.649 666.277 976.576 670.127 980.386C715.32 970.09 742.274 976.965 778.003 1012.68C785.302 1019.98 793.905 1044.39 803.206 1042.84L807.692 1038.29L809.125 1037.09C810.252 1036.17 815.582 1032.47 816.844 1031.65C828.522 1024 856.306 1003.11 868.336 1000.86L868.659 999.983C865.167 997.163 864.939 997.501 861.156 995.746C838.883 985.417 815.542 972.478 796.609 959.109C790.542 954.478 791.985 955.387 789.042 952.978C784.333 949.121 777.075 943.005 777.042 942.978C777.042 942.978 730.488 903.691 708.332 882.586C704.536 878.97 698.598 867.686 693.937 865Z" fill="#C0F0FF"/>
<path d="M1176.33 49.9779C1243.58 46.8358 1310.95 50.3521 1377.61 60.4818C1542.48 87.0035 1724.58 165.053 1826.76 315.055C1948.09 293.933 1981.72 409.845 1986.6 518.544C1988.32 556.937 1979.99 613.5 1956.2 643.256C1943.29 659.395 1919.01 662.459 1900.35 663.004C1885.82 726.021 1867.3 772.461 1830.02 824.27C1764.5 915.337 1667.36 970.238 1567.1 1002.72C1552.63 1007.41 1535.98 1012.88 1521.41 1016.15C1519.24 1016.64 1520.66 1015.64 1518.86 1017.64C1523.56 1020.93 1525.04 1021.92 1529.06 1026.13L1529.89 1027.01C1598.17 1007.14 1675.18 1060.42 1720.72 1111.62C1746.43 1140.53 1771.63 1174.49 1788.4 1210.48C1789.88 1213.65 1788.08 1220.26 1789.81 1223.08C1800.48 1239.57 1810.17 1256.26 1818.66 1274.19C1841.7 1322.83 1856.83 1374.12 1865.15 1428.04C1866 1437.33 1870.62 1452.17 1869.28 1460.95C1866.35 1475.36 1877.05 1487.73 1880.77 1501.25C1895.19 1553.78 1907.28 1621.91 1874.68 1669.12C1863.17 1685.78 1846.06 1696.82 1827.1 1699.83C1814.59 1715.39 1798.14 1720.68 1779.57 1719.9C1777.07 1720.23 1763.82 1718.14 1762.16 1718.81C1732.84 1730.57 1694.87 1722.42 1686.86 1684.57C1685.71 1679.14 1685.97 1673.02 1686.11 1666.69C1682.18 1668.96 1679.36 1669.91 1675 1670.88C1628.47 1681.1 1607.24 1624.91 1609.78 1583.7C1610.85 1566.53 1613.15 1550.37 1618.31 1533.96C1620.3 1527.61 1621.78 1521.48 1625.26 1515.85C1620.66 1509.11 1616.73 1503.78 1611.71 1497.39C1612.66 1507.26 1613.86 1529.7 1609.98 1538.44C1606.78 1545.67 1601.79 1546.77 1595.32 1549.35C1597.09 1585.97 1601.85 1623.69 1604.39 1660.4C1607.66 1701.31 1608.74 1742.93 1612.42 1783.75C1614.49 1806.82 1621.07 1830.77 1621.84 1854.71C1622.35 1870.28 1625.32 1887.11 1625.95 1902.87C1626.49 1916.45 1628.94 1930.06 1628.39 1943.77C1671.33 1982.52 1688.17 2027.21 1687.06 2087.78C1684.69 2091.98 1681.93 2095.87 1678.36 2098.95C1626.21 2144.23 1460.4 2140.21 1394.3 2131.74C1358.75 2127.19 1298.22 2118.88 1275.22 2087.2C1273.81 2070.49 1274.91 2050.53 1275.27 2033.68C1275.64 2016.16 1276.22 1998.21 1276.99 1980.7C1277.41 1971.13 1279.71 1960.14 1279.88 1950.49C1280.42 1921.03 1280.7 1891.45 1281.89 1862.01C1282.47 1847.3 1283.01 1826.09 1286.12 1811.93C1275.71 1791.94 1274.07 1754.25 1271.98 1730.41C1270.69 1712.14 1269.22 1693.87 1267.59 1675.63C1252.34 1677.8 1218.32 1675.82 1202.32 1674.87C1201.65 1705.75 1196.9 1785.29 1187.75 1811.87C1196.39 1846 1194.78 1911.58 1196.93 1949.8C1197.55 1960.98 1199.28 1972.05 1200.17 1983.2C1202.41 2011.28 1204.17 2040.84 1203.15 2068.99C1202.75 2079.97 1201.95 2087.41 1193.93 2095.08C1148.12 2138.9 985.182 2139.26 926.21 2134.34C893.619 2131.62 814.747 2122.36 793.902 2095.07C789.029 2088.69 790.67 2077.8 791.444 2070.14C796.829 2016.8 811.228 1976.88 850.724 1942.46C849.415 1881.88 859.025 1810.3 863.496 1749.13C868.032 1682.7 871.976 1616.22 875.328 1549.7C869.718 1545.39 866.115 1542.81 861.25 1537.51C860.757 1476.61 861.401 1420.41 865.451 1359.5C855.007 1368.7 847.403 1373.77 835.403 1379.93C813.618 1391.11 769.107 1393.04 747.302 1383.4C725.281 1393.85 701.307 1397.64 678.102 1388.61C650.696 1377.94 635.381 1344.16 624.223 1316.9C563.106 1318.03 527.469 1279.48 492.961 1228.1C482.995 1213.26 480.018 1199.3 482.964 1181.29C481.551 1177.99 480.184 1174.66 478.864 1171.31C471.095 1150.91 470.93 1128.02 478.404 1107.49C487.875 1082.18 509.745 1060.34 532.628 1049.65C521.798 1029.57 510.81 1007.21 500.224 986.749C499.302 987.091 498.379 987.435 497.457 987.777C410.001 1013.53 310.998 1009.62 229.827 964.182C156.88 923.347 97.6772 858.113 72.6057 772.664C51.8764 701.391 56.6196 620.284 88.4348 553.604C161.871 399.691 340.32 340.057 487.663 388.854C517.657 398.788 542.328 412.056 569.916 427.778C576.49 394.712 583.221 354.543 605.968 329.309C625.351 307.807 653.61 310.241 679.264 310.521C681.67 304.395 686.049 297.318 689.458 291.776C778.381 147.219 937.894 82.6581 1089.96 58.2611C1117.45 53.8502 1148.7 50.3268 1176.33 49.9779ZM693.937 865.001C688.76 881.192 656.142 917.109 645.448 931.985C641.376 937.649 666.277 976.579 670.127 980.387C715.32 970.091 742.274 976.966 778.003 1012.68C785.302 1019.98 793.905 1044.39 803.206 1042.84L807.692 1038.29L809.125 1037.09C810.252 1036.17 815.583 1032.47 816.844 1031.65C828.522 1024 856.306 1003.11 868.336 1000.86L868.66 999.983C865.168 997.163 864.939 997.501 861.156 995.746C838.883 985.418 815.543 972.478 796.611 959.109C790.543 954.478 791.985 955.388 789.042 952.978C784.323 949.113 777.042 942.978 777.042 942.978C776.948 942.899 730.466 903.671 708.332 882.587C704.536 878.971 698.598 867.688 693.937 865.001Z" fill="#202637"/>
<path d="M689.861 817.895C692.453 819.807 702.792 832.725 705.313 836.091C768.985 921.072 861.458 973.274 955.595 1007.19C957.707 1007.95 957.799 1007.63 959.802 1009.44C958.791 1012.47 956.339 1013 952.968 1015.11C908.409 1008.75 874.225 1023.08 836.785 1047.84C823.359 1057.23 803.789 1075.07 791.908 1086.73C766.985 1030.42 712.364 972.339 654.508 1018.4C644.191 995.443 632.331 973.342 621.621 950.6C617.714 942.303 613.834 933.986 609.432 925.984C646.763 892.949 666.992 862.996 689.861 817.895ZM693.937 864.999C688.76 881.19 656.142 917.107 645.448 931.983C641.377 937.649 666.278 976.577 670.128 980.385C715.321 970.089 742.274 976.964 778.003 1012.68C785.302 1019.98 793.905 1044.39 803.206 1042.84L807.691 1038.29L809.125 1037.09C810.252 1036.17 815.582 1032.47 816.844 1031.65C828.522 1024 856.307 1003.11 868.337 1000.86L868.66 999.981C865.168 997.161 864.939 997.5 861.156 995.745C838.883 985.416 815.543 972.476 796.61 959.107C790.543 954.477 791.985 955.386 789.043 952.977C784.347 949.13 777.114 943.036 777.043 942.977C777.043 942.977 730.488 903.69 708.332 882.585C704.536 878.969 698.598 867.685 693.937 864.999Z" fill="#C0F0FF"/>
<path d="M665.857 527.075C664.953 508.013 665.424 488.904 667.266 469.922C677.327 369.53 705.238 288.619 779.531 223.578C790.466 250.546 806.763 271.619 824.073 293.688C786.097 341.321 765.415 374.369 748.622 435.708C732.13 495.945 731.441 546.957 730.522 609.139C739.004 608.026 744.951 608.275 753.564 608.469L752.88 607.168C763.647 603.865 808.796 612.31 811.196 609.671C806.166 605.157 802.975 609.718 800.496 606.712C805.974 605.516 817.145 607.123 822.886 608.038C819.096 609.193 815.683 608.452 813.275 609.739C814.851 611.354 876.004 614.951 883.272 614.909L883.77 613.877C879.146 612.137 874.854 614.388 871.863 612.763C874.824 609.947 903.405 614.438 908.383 616.282L901.662 615.071C917.238 620.098 939.418 617.982 945.554 620.446L945.894 621.558L943.515 622.677C980.717 626.723 1028.74 627.732 1066.34 629.274L1065.94 627.919C1070.29 626.343 1083.71 627.051 1089.45 626.869L1089.03 625.48C1092.94 623.072 1129.55 626.116 1136.34 626.707C1132.74 627.097 1129.07 627.561 1125.47 627.709C1130.87 629.832 1194.5 631.319 1198.08 629.482C1195.76 627.246 1165.19 630.206 1163.36 627.703C1169.43 626.115 1203.8 627.895 1212.74 627.213C1218.09 626.804 1220.75 629.519 1228.4 627.861L1229.39 628.607C1222.51 631.127 1214.49 629.251 1206.66 630.22C1247.06 631.507 1286.65 632.463 1327.1 630.321C1334.5 629.929 1365.4 631.602 1370.52 629.075L1370.04 627.802L1362.59 628.041L1361.64 627.037C1366.65 626.07 1370.64 626.291 1375.69 626.299L1376.18 626.796L1371.77 628.633L1372.23 628.224L1373.35 629.961C1385.89 632.181 1452.14 623.972 1459.75 627.956L1460 629.258C1556.23 624.246 1652.35 617.009 1748.3 607.553C1757.41 649.793 1762.73 677.157 1784.67 714.241C1797.62 736.925 1816.37 752.524 1840.96 755.63C1730.84 976.122 1439.51 1030.84 1229.54 1025.69C1173.64 1024.18 1117.93 1018.18 1062.85 1007.75C951.957 987.397 834.599 939.449 753.017 852.636C732.207 830.492 718.412 811.234 701.735 785.705C714.103 740.717 717.459 693.364 711.578 646.843C699.974 597.102 693.457 570.872 665.857 527.075Z" fill="#FEFEFE"/>
<path d="M711.579 646.844C724.979 667.626 724.846 679.584 733.747 702.587C740.271 719.446 750.101 739.764 758.824 755.46C774.341 783.806 792.925 810.023 814.179 833.55C1015.26 1052.17 1473.17 1043.51 1686.64 846.2C1720.04 815.325 1751.91 775.853 1773.76 734.383C1775.02 732 1784.39 715.443 1784.67 714.242C1797.62 736.926 1816.38 752.525 1840.96 755.631C1730.84 976.123 1439.51 1030.84 1229.54 1025.69C1173.64 1024.18 1117.93 1018.18 1062.85 1007.75C951.957 987.398 834.599 939.45 753.018 852.637C732.208 830.493 718.413 811.235 701.735 785.706C714.103 740.718 717.459 693.365 711.579 646.844Z" fill="#E6E8F2"/>
<path d="M1066.34 629.275L1065.94 627.92C1070.29 626.344 1083.71 627.052 1089.45 626.87L1089.03 625.48C1092.94 623.072 1129.55 626.116 1136.34 626.707C1132.74 627.097 1129.07 627.562 1125.47 627.71C1130.87 629.833 1194.5 631.32 1198.08 629.483C1195.76 627.247 1165.19 630.207 1163.36 627.704C1169.43 626.116 1203.8 627.896 1212.74 627.214C1218.09 626.805 1220.75 629.52 1228.4 627.862L1229.39 628.608C1222.51 631.128 1214.49 629.251 1206.66 630.22C1247.06 631.507 1286.65 632.464 1327.1 630.322C1334.5 629.93 1365.4 631.603 1370.52 629.076L1370.04 627.803L1362.59 628.042L1361.64 627.038C1366.65 626.071 1370.64 626.292 1375.69 626.3L1376.18 626.797L1371.77 628.634L1372.23 628.225L1373.35 629.962C1385.89 632.182 1452.14 623.973 1459.75 627.957L1460 629.259C1328.85 635.754 1197.5 635.759 1066.34 629.275Z" fill="#202637"/>
<path d="M753.564 608.468L752.88 607.167C763.647 603.864 808.796 612.309 811.196 609.67C806.166 605.156 802.975 609.717 800.496 606.711C805.974 605.515 817.145 607.122 822.885 608.037C819.096 609.192 815.683 608.451 813.275 609.738C814.851 611.353 876.004 614.95 883.272 614.908L883.77 613.876C879.146 612.136 874.854 614.387 871.863 612.762C874.824 609.946 903.404 614.437 908.383 616.281L901.662 615.07C917.238 620.097 939.418 617.981 945.554 620.445L945.894 621.557L943.515 622.676L753.564 608.468Z" fill="#202637"/>
<path d="M1042.21 697.854C1108.21 705.5 1178.96 710.428 1245.3 710.62C1302.7 710.787 1360.65 705.707 1417.71 699.477C1421.79 703.149 1425.35 706.278 1424.94 712.767C1422.14 758.136 1400.53 802.378 1372.81 835.307C1370.86 837.461 1368.86 839.572 1366.83 841.638C1326.94 881.948 1275.34 898.234 1221.78 896.642C1122.85 893.7 1044.35 815.872 1035.74 708.244C1035.36 703.513 1039.28 700.401 1042.21 697.854Z" fill="url(#paint0_linear_39_89)"/>
<path d="M1104.69 832.001C1130.33 806.96 1194.3 777.286 1231.78 788.146C1233.91 788.763 1233.75 788.328 1236 787.827C1262.23 778.904 1317.08 797.322 1341.37 811.048C1348.94 815.307 1356.26 820.06 1363.31 825.281C1361.39 827.397 1356.62 832.932 1354.67 834.395C1325.72 865.597 1278.22 880.666 1238.46 882.796C1189.44 885.932 1141.29 867.649 1104.69 832.001Z" fill="#FB8D8E"/>
<path d="M1236 787.827C1262.23 778.904 1317.08 797.322 1341.37 811.048C1348.94 815.307 1356.26 820.06 1363.31 825.281C1361.39 827.397 1356.62 832.932 1354.67 834.395C1352.32 829.791 1346.01 826.774 1341.47 824.176C1323.57 814.111 1304.78 806.041 1285.39 800.088C1276.31 797.278 1261.45 793.773 1253.35 789.781L1257.63 789.138C1249.64 788.156 1244.07 787.954 1236 787.827Z" fill="#F47373"/>
<path d="M265.701 410.56C352.34 376.805 447.745 381.87 530.955 424.644C600.545 459.921 657.701 521.858 683.949 601.144C706.681 668.197 703.748 742.376 675.807 807.054C656.557 851.633 624.55 892.48 588.111 921.446C583.914 924.784 570.053 935.461 565.376 937.49C555.727 944.661 541.656 951.505 530.777 956.781C470.104 986.204 394.533 995.835 329.159 983.051C305.844 978.492 265.391 966.306 245.752 953.904C206.145 935.957 162.531 897.833 135.386 862.264C91.4308 805.165 70.3139 731.277 76.7529 657.108C83.2427 581.744 120.067 514.972 173.107 467.113C208.328 437.947 225.114 428.936 265.701 410.56Z" fill="#E6E8F2"/>
<path d="M245.752 953.905C254.794 953.704 274.46 963.504 284.258 966.174C313.698 974.194 341.253 981.21 371.873 981.995C378.784 981.999 388.004 983.748 394.783 982.955C434.069 978.36 469.194 965.538 505.987 951.077C514.28 947.818 530.948 951.536 539.267 949.556C546.448 947.846 557.996 937.033 565.376 937.491C555.727 944.662 541.656 951.506 530.777 956.782C470.104 986.205 394.533 995.836 329.159 983.052C305.844 978.493 265.391 966.307 245.752 953.905Z" fill="#B9BED1"/>
<path d="M375.462 427.361C447.503 425.17 517.699 452.351 572.288 503.576C618.046 546.91 649.328 610.09 653.262 676.412C657.331 740.466 637.635 803.621 598.586 851.738C544.208 917.962 477.065 944.164 397.877 948.946C379.325 949.403 360.75 948.857 342.302 945.226C81.468 893.883 32.8262 542.735 293.797 442.278C321.2 431.73 346.318 429.002 375.462 427.361Z" fill="#000001"/>
<path d="M564.586 864.285C562.508 867.769 548.883 879.367 544.97 882.267C428.656 968.452 258.428 945.383 175.242 817.318C103.729 707.223 132.56 567.762 233.428 493.363C296.734 446.669 366.507 434.264 441.259 449.73C486.613 459.273 528.747 482.015 563.181 515.538C568.839 521.096 577.699 530.101 581.819 536.694C608.101 565.539 627.548 608.65 633.923 648.606C642.692 680.424 637.443 732.115 627.746 763.176C617.064 797.392 591.34 841.685 564.586 864.285Z" fill="#AED6FE"/>
<path d="M564.586 864.285C562.508 867.769 548.883 879.367 544.97 882.267C428.656 968.452 258.428 945.383 175.242 817.318C103.729 707.223 132.56 567.762 233.428 493.363C296.734 446.669 366.507 434.264 441.259 449.73C486.613 459.273 528.747 482.015 563.181 515.538C568.839 521.096 577.699 530.101 581.819 536.694C608.101 565.539 627.548 608.65 633.923 648.606C629.519 646.126 628.903 635.526 627.64 630.031L624.443 630.417C624.111 632.789 624.122 633.939 624.096 636.352L622.832 636.686C617.403 630.625 614.759 623.251 609.387 618.493L607.336 618.532C597.023 605.829 594.973 586.867 584.563 572.668C540.206 512.863 480.809 475.253 409.332 471.374C341.188 467.403 290.077 478.011 237.118 527.446C155.324 601.204 150.51 728.494 219.159 815.195C282.593 895.31 387.446 920.736 479.743 893.327C502.392 886.601 552.012 849.179 570.442 850.284L571.106 852.02C568.406 856.085 565.651 857.811 563.963 862.5L564.586 864.285Z" fill="url(#paint1_linear_39_89)"/>
<path d="M627.64 630.03C623.573 609.799 620.482 611.287 611.188 594.769C609.3 591.413 609.41 582.508 608.754 580.944C603.735 568.985 593.411 554.049 584.859 544.617C582.415 541.922 582.543 542.948 580.755 539.289L581.819 536.693C608.101 565.538 627.548 608.649 633.923 648.605C629.519 646.125 628.903 635.525 627.64 630.03Z" fill="#9CD8FF"/>
<path d="M340.769 475.526C354.483 474.508 368.234 476.756 381.068 482.113C398.786 489.407 414.129 506.334 405.784 528.115C394.079 558.671 362.609 567.825 337.54 581.023C323.936 588.185 309.862 595.992 295.967 602.325C204.878 638.225 212.816 503.582 340.769 475.526Z" fill="#FEFEFE"/>
<path d="M533.174 797.826C538.993 797.811 546.927 800.251 551.684 803.798C554.424 805.812 556.307 808.937 556.912 812.475C558.312 820.792 554.008 830.001 549.682 836.513C538.096 853.953 521.607 862.39 502.742 865.912C496.045 865.676 489.514 863.587 483.764 859.843C472.852 852.722 475.687 840.707 481.597 830.753C493.179 811.247 513.402 802.69 533.174 797.826Z" fill="#FEFEFE"/>
<path d="M215.51 620.026C251.325 616.98 253.183 673.92 221.809 689.171C185.125 689.709 182.207 630.592 215.51 620.026Z" fill="#FEFEFE"/>
<path d="M999.777 1021.28C1008.81 1023.83 1037.24 1030.35 1046.57 1031.67C1055.5 1076.61 1094.7 1096.16 1131.11 1110.55C1198.39 1130.31 1254.6 1132.08 1322.41 1115.02C1360.2 1102.89 1405.61 1081.7 1421.31 1038.94C1438.08 1036.71 1464.08 1031.05 1481.04 1027.44C1489.18 1030.71 1497.61 1034.47 1505.73 1037.93C1509.21 1052.1 1515.08 1070.15 1519.09 1085.05C1522.85 1099.72 1526.97 1114.4 1530.91 1129.04C1557.68 1228.5 1570.51 1329.04 1581.37 1431.88C1527.55 1450.14 1493.58 1455.29 1437.7 1459.27C1421.36 1439.89 1400.32 1410.97 1386.5 1389.7C1327.69 1391.5 1255.8 1388.98 1196.82 1387.46L1067.75 1385.32C1050.78 1408.74 1034.11 1432.4 1017.74 1456.31C972.358 1450.81 933.274 1447.58 889.208 1431.41C894.084 1303.13 914.733 1187.25 957.68 1067.69C960.885 1059.29 966.985 1044.87 969.474 1036.88C981.011 1030.07 987.661 1026.74 999.777 1021.28Z" fill="#FEFEFE"/>
<path d="M1481.04 1027.44C1489.18 1030.71 1497.61 1034.47 1505.73 1037.93C1509.21 1052.1 1515.08 1070.15 1519.09 1085.05C1513.8 1094.71 1502.6 1096.48 1493.17 1099.07C1467.03 1106.25 1344.28 1130.36 1325.1 1117.51C1324.19 1116.9 1324.4 1117.02 1324.07 1116.02L1322.41 1115.02C1360.2 1102.89 1405.61 1081.7 1421.31 1038.94C1438.08 1036.71 1464.08 1031.05 1481.04 1027.44Z" fill="#E6E8F2"/>
<path d="M999.777 1021.28C1008.81 1023.83 1037.24 1030.35 1046.57 1031.67C1055.5 1076.61 1094.7 1096.16 1131.11 1110.55C1106.27 1111.78 1083.73 1107.86 1059.4 1102.21C1041.7 1098.11 966.635 1082.1 957.679 1067.69C960.885 1059.29 966.985 1044.87 969.474 1036.88C981.011 1030.07 987.661 1026.74 999.777 1021.28Z" fill="#E6E8F2"/>
<path d="M835.08 181.351C873.067 152.034 934.78 124.235 979.596 110.849C1191.26 47.6297 1448.41 64.0415 1641.51 180.964C1633.37 193.041 1626.14 206 1617.04 217.425C1608.21 228.509 1597.87 239.052 1588.28 249.462C1580.9 255.682 1573.31 262.274 1565.76 268.213C1558.83 272.008 1552.22 276.858 1545.12 280.266C1512.63 295.868 1465.84 304.594 1430.76 310.342C1296.94 332.28 1051.11 341.255 926.605 286.95C881.549 267.297 853.829 228.791 835.08 181.351Z" fill="#FEFEFE"/>
<path d="M901.32 1558.65C978.843 1605.02 1091.85 1664.98 1181.06 1671.4C1180.26 1698.87 1179.52 1790.51 1163.6 1807.71C1152.63 1819.58 1130.02 1821.79 1115.4 1823.16C1111.18 1823.56 1105.94 1823.06 1102.13 1825.07L1102.47 1826.49C1115.38 1834.28 1143.37 1831 1157.2 1826.64C1160.16 1825.68 1163.09 1824.62 1165.99 1823.46C1172.37 1879.22 1170.2 1915.59 1172.71 1969.04C1151.98 1986.09 1135.7 1981.82 1114.72 1987.28C1110.78 1985.65 1090.42 1961.39 1084.13 1955.59C1067.96 1940.6 1049.73 1928.49 1030.09 1919.7C978.843 1897.34 926.017 1901.3 875.698 1924.44C877.464 1905.56 878.177 1885.85 879.539 1866.84C881.012 1846.25 883.2 1825.12 884.125 1804.56C917.538 1822.23 963.172 1832.22 1000.42 1834.42C1011.1 1835.05 1025.4 1834.3 1036.55 1834.33C1046.45 1833.25 1070.41 1833.74 1077.51 1830.31C1077.84 1826.76 1078.16 1828.45 1076.08 1825.18C1071.23 1823.27 1047 1823.74 1039.23 1823.5C996.828 1822.18 920.184 1814.67 886.968 1785.98C888.725 1719.52 894.945 1652.06 899.288 1585.7C899.874 1576.74 900.943 1567.6 901.32 1558.65Z" fill="#FEFEFE"/>
<path d="M1388.86 1650.06C1437.15 1632.22 1482.18 1608.6 1527.63 1583.67C1536.77 1578.66 1561.95 1565.91 1569.48 1560.26C1574.89 1616.1 1579.11 1672.07 1582.14 1728.12C1583.13 1745.01 1585.73 1768.12 1585.94 1784.21C1556.8 1812.12 1497.27 1818.79 1459.03 1821.45C1452.58 1821.9 1436.42 1822.91 1430.33 1822.5C1420.75 1823.53 1401.74 1822.77 1394.38 1826.45L1393.67 1828.48C1395.95 1830.96 1394.67 1829.91 1398.27 1830.82C1397.5 1831.01 1384.67 1837.43 1382.35 1838.49C1363.65 1847.04 1356.71 1861.65 1356.49 1882.95C1355.6 1914.17 1354.81 1954.07 1360.38 1984.32C1361.41 1985.46 1361.86 1986.15 1363.07 1987.02L1361.98 1987.69C1341.65 1986.77 1321.28 1983.87 1304.64 1969.84C1306.2 1920.06 1303.7 1873.18 1310.31 1822.96C1321.67 1828.42 1365.42 1836.17 1373.29 1826.57C1373 1823.46 1371.24 1823.55 1368.55 1823.22C1350.22 1821.02 1326.47 1821.06 1311.77 1807.01C1296.25 1792.19 1293.81 1698.05 1292.91 1673.38C1327.25 1667.99 1355.6 1662.01 1388.86 1650.06Z" fill="#FEFEFE"/>
<path d="M1292.91 1673.38C1327.25 1667.99 1355.6 1662.01 1388.86 1650.06C1388.74 1650.8 1388.64 1651.53 1388.49 1652.26C1386.24 1663.87 1353.02 1679.32 1348.5 1701.37C1346.17 1712.76 1347.89 1726.57 1348.54 1738.15C1349.46 1754.89 1351.9 1772.38 1359.7 1787.11C1367.59 1801.98 1383.84 1816.86 1399.01 1821.79C1408.11 1824.74 1420.55 1820.98 1430.33 1822.5C1420.75 1823.53 1401.74 1822.77 1394.38 1826.45L1393.67 1828.48C1395.95 1830.96 1394.67 1829.91 1398.27 1830.82C1397.5 1831.01 1384.67 1837.43 1382.35 1838.49C1363.65 1847.04 1356.71 1861.65 1356.49 1882.95C1355.6 1914.17 1354.81 1954.07 1360.38 1984.32C1361.41 1985.46 1361.86 1986.15 1363.07 1987.02L1361.98 1987.69C1341.65 1986.77 1321.28 1983.87 1304.64 1969.84C1306.2 1920.06 1303.7 1873.18 1310.31 1822.96C1321.67 1828.42 1365.42 1836.17 1373.29 1826.57C1373 1823.46 1371.24 1823.55 1368.55 1823.22C1350.22 1821.02 1326.47 1821.06 1311.77 1807.01C1296.25 1792.19 1293.81 1698.05 1292.91 1673.38Z" fill="#E6E8F2"/>
<path d="M1638.78 1318.16C1682.88 1310.26 1750.17 1286.6 1776.11 1243.9C1810.14 1297.65 1827.06 1342.44 1840.42 1406.11C1843.47 1420.59 1848.87 1447.2 1850.07 1461.65C1822.43 1493.47 1776.78 1505.62 1737.89 1507.55C1720.03 1511.21 1652.63 1507.45 1638 1495.14C1610.66 1472.15 1609.16 1423.81 1605.11 1389.4C1602.23 1366.34 1599.56 1343.26 1597.08 1320.14C1610.76 1321.06 1625.12 1319.57 1638.78 1318.16Z" fill="#FEFEFE"/>
<path d="M1597.08 1320.14C1610.76 1321.06 1625.12 1319.57 1638.78 1318.16C1636.24 1323.48 1641.37 1367.99 1642.91 1375.29C1653.98 1427.69 1671.94 1472.63 1711.02 1506.95C1717.8 1507.27 1732.77 1506.85 1737.89 1507.55C1720.03 1511.21 1652.63 1507.45 1638 1495.14C1610.66 1472.15 1609.16 1423.81 1605.11 1389.4C1602.23 1366.34 1599.56 1343.26 1597.08 1320.14Z" fill="#E6E8F2"/>
<path d="M1504.32 1924.9C1505.58 1924.8 1506.85 1924.72 1508.11 1924.67C1577.33 1921.47 1660.39 1967.15 1663.09 2050.86C1638.16 2075.9 1553.94 2082.27 1520.58 2083.92C1476.21 2086.13 1412.28 2086.61 1372.06 2063.57C1351 2051.51 1368.08 2010.46 1379.56 1995.25C1411.87 1952.46 1454.44 1931.3 1504.32 1924.9Z" fill="#404854"/>
<path d="M1469.78 1942.41C1477.77 1942.92 1490.65 1943.77 1491.59 1954.51C1488.62 1964.33 1466.85 1975.51 1458.12 1981.22C1441.74 1991.94 1426.49 2002.53 1411.91 2016.15C1407.69 2019.67 1405.29 2022.71 1399.78 2021.36C1389.7 2011.27 1404.8 1985.78 1411.47 1976.62C1425.95 1956.74 1446.78 1945.28 1469.78 1942.41Z" fill="#7C828C"/>
<path d="M592.853 1051.55C616.24 1049.83 660.599 1049.99 670.216 1084.09C672.804 1093.28 667.637 1102.84 662.929 1110.48C649.977 1113.6 632.587 1113.48 618.372 1116.78C606.8 1119.47 549.85 1137.68 553.556 1154.16C555.703 1155.21 559.351 1155.66 561.465 1154.58C577.898 1146.23 592.907 1137.88 610.718 1132.68C636.633 1125.12 689.825 1119.1 702.327 1153.02C705.198 1160.81 699.161 1178.05 692.207 1182.71C676.157 1191.92 656.091 1196.48 638.623 1202.99C626.592 1207.42 614.826 1212.67 603.394 1218.69C599.541 1220.73 590.556 1225.08 588.366 1228.81C589.092 1232.56 588.258 1230.91 591.566 1233.52C597.941 1234.93 628.807 1221.21 637.152 1217.88C658.526 1209.43 681.643 1200.2 704.12 1196.15C722.92 1212.22 719.62 1227.51 707.733 1247.7C691.186 1275.82 662.388 1287.38 633.768 1294.3C587.243 1305.54 547.665 1270.14 522.74 1231.07C519.539 1226.51 504.438 1205.23 504.478 1199.41C504.609 1179.94 498.458 1166.5 493.654 1148.63C490.201 1135.78 497.139 1113.54 504.696 1102.44C525.37 1072.09 559.677 1057.97 592.853 1051.55Z" fill="#404854"/>
<path d="M949.927 1924.89C995.037 1923.07 1040.36 1937.64 1074.49 1970.95C1177.66 2071.61 1048.99 2081.46 979.504 2083.12C932.805 2083.67 860.741 2079.05 819.131 2053.58C803.499 2044.01 832.789 1992.9 841.556 1981.95C870.641 1945.61 906.344 1929.25 949.927 1924.89Z" fill="#404854"/>
<path d="M919.412 1939.1C927.606 1938.68 945.352 1940.15 945.316 1952.11C943.497 1956.16 940.668 1959.45 937.021 1961.59C910.305 1977.21 887.078 1990.47 862.71 2010.26L859.169 2013.28C855.754 2016.21 854.776 2017.78 850.636 2018.44C839.08 2013.86 853.334 1984.53 858.103 1977.55C873.705 1954.68 893.938 1943.65 919.412 1939.1Z" fill="#7C828C"/>
<path d="M1643.25 298.825C1659.49 285.816 1692.86 241.587 1702.32 222.383C1744.36 253.372 1771.03 282.545 1803.61 324.354C1789.48 338.112 1786.51 371.067 1785.32 390.509C1780.99 460.954 1793.12 533.342 1816.51 598.942C1827.93 625.837 1845.28 658.313 1874.61 663.856C1866.68 695.819 1860.96 712.684 1847.31 743.044C1823.41 739.876 1804.03 727.976 1792.51 704.148C1764.61 663.088 1758.75 591.822 1754.41 542.869C1746.89 458.003 1705.58 352.385 1643.25 298.825Z" fill="#FEFEFE"/>
<path d="M1816.51 598.941C1827.93 625.836 1845.28 658.312 1874.61 663.855C1866.68 695.818 1860.96 712.683 1847.31 743.043C1823.41 739.875 1804.03 727.975 1792.51 704.147C1794.03 701.628 1793.96 699.379 1794.41 696.77C1797.25 680.397 1803.78 665.495 1807.46 648.351C1810.59 633.785 1811.82 610.609 1816.51 598.941Z" fill="#E6E8F2"/>
<path d="M1538.28 1047.55C1552.17 1043.31 1563.64 1042.41 1577.72 1045.63C1585.61 1046.07 1596.9 1049.19 1604.34 1052.24C1668.87 1078.7 1733.91 1147.69 1767.02 1213.02C1753.07 1250.26 1726.53 1265.75 1693.72 1282.43C1684.46 1287.13 1660.01 1294.86 1649.9 1295.67C1634.27 1300.6 1609.57 1300.89 1593.49 1300.01C1581.51 1229.3 1569.34 1157.97 1549.46 1089.27C1545.46 1075.45 1541.88 1061.5 1538.28 1047.55Z" fill="#FEFEFE"/>
<path d="M1538.28 1047.55C1552.17 1043.31 1563.64 1042.41 1577.72 1045.63C1571.13 1046.27 1565.54 1045.79 1558.96 1045.42C1573.22 1081.1 1586.97 1121.56 1597.14 1158.77C1607.29 1195.89 1613.11 1235.18 1626.11 1271.42C1631.24 1285.7 1634.69 1295.93 1649.9 1295.67C1634.27 1300.6 1609.57 1300.89 1593.49 1300.01C1581.51 1229.3 1569.34 1157.97 1549.46 1089.27C1545.46 1075.45 1541.88 1061.5 1538.28 1047.55Z" fill="#E6E8F2"/>
<path d="M1852.1 1488.75C1852.49 1489.07 1852.9 1489.38 1853.3 1489.69C1878.09 1545.48 1890.38 1630.7 1845.22 1667.61L1844.23 1666.45C1848.96 1654.35 1859.05 1618.44 1850.72 1607.54L1848.82 1607.37C1845.19 1614.1 1843.75 1624.84 1840.92 1632.9C1832.62 1656.52 1818.29 1690.58 1793.08 1696.62C1789.63 1697.45 1784.6 1698.46 1781.6 1696.33C1781.56 1694.45 1789.89 1678.21 1791.57 1675.41C1797.2 1666.04 1810.23 1632.04 1804.11 1622.27C1802.05 1622.49 1801.03 1622.12 1800.23 1624.83C1789.9 1659.91 1768.97 1713.04 1725.4 1703.11C1723.93 1702.36 1722.47 1701.57 1721.02 1700.77C1715.54 1697.69 1709.9 1692.95 1708.32 1686.24C1704.74 1671.03 1716.24 1662.91 1722.08 1652.3C1728.38 1639.6 1729.39 1621.21 1725.95 1607.49C1722.46 1593.55 1710.08 1577.65 1695.63 1584.28C1675.74 1593.4 1690.53 1623.56 1682.53 1640.04C1679.69 1645.88 1676.09 1648.91 1670.32 1650.69C1650.44 1657.83 1636.18 1632.92 1631.96 1614.68C1624.65 1583.17 1631.24 1546.8 1646.08 1518.8C1665.08 1522.45 1687.41 1526.35 1706.73 1526.75C1754.14 1527.75 1812.05 1517.51 1852.1 1488.75Z" fill="#404854"/>
<path d="M1475.07 394.319C1480.3 393.938 1485.56 393.884 1490.8 394.156C1554.46 396.82 1614.07 434.514 1631.66 504.423C1634.8 516.929 1638.47 537.77 1627.34 546.934C1609.6 561.544 1596.79 539.314 1585.36 527.567C1560.21 501.867 1530.53 485.13 1496.1 480.644C1455.94 474.34 1415.2 486.733 1383.86 514.786C1373.69 523.854 1360.95 539.495 1348.23 542.519C1340.36 544.389 1327.16 533.231 1327.35 523.236C1327.82 498.8 1342.94 472.66 1356.94 454.884C1388.28 415.082 1427.95 398.244 1475.07 394.319Z" fill="url(#paint2_linear_39_89)"/>
<path d="M961.758 395.528C1018.1 391.814 1073.8 413.453 1109.43 462.319C1124.42 482.885 1132.8 502.316 1135.43 528.323C1135.02 529.32 1134.59 530.312 1134.15 531.296C1130.03 540.559 1126.26 542.173 1117.7 545.484C1098.01 540.931 1090.41 525.279 1073.99 512.394C1050.44 493.917 1029.35 485.183 1001.01 480.647C957.643 474.54 918.411 486.128 885.21 518.658C874.509 528.759 869.739 544.524 854.603 547.169C841.925 550.575 833.038 536.274 833.244 523.31C834.462 446.768 898.051 400.113 961.758 395.528Z" fill="url(#paint3_linear_39_89)"/>
<path d="M1398.27 1830.82C1449.36 1838.21 1547.29 1832.55 1589.97 1802.22C1596.49 1842.25 1599.59 1886.47 1602.43 1927.01C1565.77 1902.79 1508.81 1900.24 1468.25 1912.09C1420.89 1925.92 1393.74 1947.24 1363.07 1987.02C1361.86 1986.15 1361.41 1985.46 1360.38 1984.32C1354.81 1954.07 1355.6 1914.17 1356.49 1882.95C1356.71 1861.65 1363.65 1847.04 1382.35 1838.49C1384.67 1837.43 1397.5 1831.01 1398.27 1830.82Z" fill="#FEFEFE"/>
<path d="M804.478 1132.56C865.103 1156.27 887.201 1229.59 874.598 1293.8C867.424 1330.36 848.806 1352.15 816.402 1363.09C794.108 1368.7 785.652 1367.81 762.893 1366.76C783.719 1337.88 777.935 1314.78 764.173 1285.11C770.639 1278.26 776.557 1270.82 781.865 1262.87C811.228 1218.79 811.771 1183.01 804.478 1132.56Z" fill="url(#paint4_linear_39_89)"/>
<path d="M1865.54 508.231C1861.4 500.521 1857.38 482.092 1858.21 472.924C1858.37 471.164 1858.42 471.845 1857.34 470.192L1852.45 470.14C1848.7 475.246 1858.96 501.158 1854.77 506.701L1853.48 505.403C1852.47 493.654 1849.87 479.699 1849.76 468.652V467.146L1846.89 468.198L1848.56 467.102C1844.01 470.911 1818.25 471.747 1815.18 474.2C1798.7 487.379 1818.33 551.18 1824.46 566.112L1827.42 567.153L1827.09 567.524L1824.12 566.777C1817.88 558.05 1812.19 529.747 1809.95 518.33C1801.28 473.921 1797.44 427.454 1803.43 382.325C1805.44 367.202 1805.24 344.43 1821.31 338.396C1830.86 334.822 1873.75 331.939 1881.64 336.258C1893.14 340.122 1900.36 344.033 1909.75 352.683L1911.38 353.25L1910.84 354.587C1902.63 354.931 1894.09 363.092 1889.12 369.849C1876.13 387.495 1875.14 414.023 1874.64 435.704C1874.53 442.65 1875.33 452.776 1874.49 459.175C1875.08 498.572 1893.3 569.861 1918.99 597.72C1927.76 605.53 1932.89 608.874 1945.09 607.542C1947.45 607.273 1949.81 606.953 1952.16 606.582C1946.38 625.039 1933.68 647.377 1915.6 626.368C1886.3 599.508 1872.78 547.772 1865.54 508.231Z" fill="#404854"/>
<path d="M1865.54 508.231C1862.04 482.673 1857.83 457.639 1857.41 431.667C1857.1 413.329 1857.04 338.182 1881.64 336.258C1893.14 340.122 1900.36 344.033 1909.75 352.683L1911.38 353.25L1910.84 354.587C1902.63 354.931 1894.09 363.092 1889.12 369.849C1876.13 387.495 1875.14 414.023 1874.64 435.704C1874.53 442.65 1875.33 452.776 1874.49 459.175C1875.08 498.572 1893.3 569.861 1918.99 597.72C1927.76 605.53 1932.89 608.874 1945.09 607.542C1947.45 607.273 1949.81 606.953 1952.16 606.582C1946.38 625.039 1933.68 647.377 1915.6 626.368C1886.3 599.508 1872.78 547.772 1865.54 508.231Z" fill="url(#paint5_linear_39_89)"/>
<path d="M1918.99 597.721C1927.76 605.531 1932.89 608.875 1945.09 607.543C1947.45 607.274 1949.81 606.954 1952.16 606.583C1946.38 625.04 1933.68 647.378 1915.6 626.369C1917.58 626.035 1916.84 626.537 1917.98 625.155C1915.51 622.093 1921 605.823 1918.99 597.721Z" fill="#7C828C"/>
<path d="M1909.75 352.684L1911.38 353.251L1910.84 354.588C1902.63 354.932 1894.09 363.093 1889.12 369.85C1876.13 387.496 1875.14 414.024 1874.64 435.705C1874.53 442.651 1875.33 452.777 1874.49 459.176C1870.29 435.791 1870.81 402.039 1876.46 379.023C1878.4 371.123 1881.07 364.142 1886.18 358.011C1893.44 349.3 1900.54 353.351 1909.75 352.684Z" fill="#404854"/>
<path d="M1810.11 365.795C1824.99 369.44 1823.45 384.242 1815.8 395.185C1798.96 394.443 1803.91 376.111 1810.11 365.795Z" fill="#7C828C"/>
<path d="M692.103 1024.18C762.091 1019.29 809.101 1163.67 781.04 1222.89C775.977 1233.58 762.918 1259.88 753.437 1264.55C752.701 1264.01 734.699 1240.6 734.737 1241.29C734.119 1229.95 740.264 1223.08 735.661 1210.67C732.393 1201.12 727.601 1188.62 719.774 1182.14C716.513 1179.44 724.262 1160.09 721.76 1153.9C721.234 1152.6 721.272 1149.04 721.334 1147.64C723.45 1145.05 731.974 1142.51 735.418 1140.5C760.011 1126.09 760.436 1109.41 748.139 1085.54C746.611 1094.02 744.743 1100.87 741.149 1108.55C725.852 1141.24 705.493 1125.9 683.99 1112.55C694.179 1079.33 683.983 1062 661.623 1040.91C671.288 1030.82 679.01 1026.62 692.103 1024.18Z" fill="#404854"/>
<path d="M1903.22 386.544C1908.54 375.624 1918.53 366.781 1928.42 378.02C1959.15 412.924 1964.56 470.576 1967.67 516.813C1968.82 534.636 1966.75 567.707 1955.99 582.192C1949.31 591.169 1937.2 588.535 1931.01 579.675C1912.69 553.419 1902.32 509.115 1898.78 476.748C1895.56 449.294 1892.7 412.509 1903.22 386.544Z" fill="url(#paint6_linear_39_89)"/>
<path d="M1903.22 386.543C1907.04 383.797 1908.8 381.967 1913.17 382.439C1918.03 389.369 1914.74 408.726 1913.55 417.758C1910.02 444.456 1912.44 471.767 1913.34 498.624C1913.63 507.333 1916.03 516.94 1916.89 525.662C1913.5 517.041 1902.38 480.821 1898.78 476.747C1895.56 449.293 1892.7 412.508 1903.22 386.543Z" fill="#AED6FE"/>
<path d="M907.463 1037.97C920.083 1034.14 928.506 1033.88 941.706 1033.82C924.235 1065.21 896.759 1168.37 890.088 1206.45C884.984 1190.44 880.5 1180.19 872.711 1165.19C856.778 1140.05 829.861 1117.15 803.015 1108.35C828.992 1079.69 869.937 1044.34 907.463 1037.97Z" fill="#FEFEFE"/>
<path d="M907.463 1037.97C920.083 1034.14 928.506 1033.88 941.706 1033.82C924.235 1065.21 896.759 1168.37 890.088 1206.45C884.984 1190.44 880.5 1180.19 872.711 1165.19L875 1163.35C877.171 1152.09 885.989 1133.64 890.151 1122.06C898.202 1099.68 911.506 1062.07 915.439 1038.52L907.463 1037.97Z" fill="#E6E8F2"/>
<path d="M647.577 1310.55C671.732 1302.47 695.944 1289.25 713.452 1269.46C715.651 1266.98 720.759 1260.1 722.945 1259.06L723.983 1260.67L743.355 1292.42C751.101 1301.89 758.544 1323.84 755.472 1336.51C748.69 1364.49 713.455 1376.06 690.154 1368.76C670.255 1362.52 656.822 1328.99 647.577 1310.55Z" fill="#626A7C"/>
<path d="M743.355 1292.42C745.043 1297.7 747.458 1301.12 748.657 1307.47C750.222 1316.12 748.356 1325.09 743.519 1332.16C741.569 1334.96 740.037 1336.44 737.125 1336.88C737.092 1332.41 737.094 1318.47 736.068 1314.77C731.639 1298.83 721.726 1281.16 720.796 1264.47C722.123 1261.01 721.037 1262.17 723.983 1260.67L743.355 1292.42Z" fill="#B9BED1"/>
<path d="M626.565 342.661C633.6 331.97 659.602 334.268 671.029 334.956C662.808 361.736 654.153 391.423 649.918 419.356C646.893 439.306 640.218 468.054 640.475 487.635C628.656 474.407 612.589 465.089 601.414 451.889L591.686 443.434C597.876 408.524 603.79 369.419 626.565 342.661Z" fill="#404854"/>
<path d="M626.565 342.66L628.42 344.179C628.436 348.412 626.106 353.297 624.408 357.14C610.743 388.082 607.7 419.096 601.414 451.888L591.686 443.433C597.876 408.523 603.79 369.418 626.565 342.66Z" fill="url(#paint7_linear_39_89)"/>
<path d="M523.098 977.892C541.849 969.033 572.847 953.221 589.09 939.676C592.385 949.658 600.697 961.122 605.362 973.524C617.085 995.235 624.203 1011.78 634.691 1033.08C621.316 1031.27 612.043 1029.86 598.459 1031.11C584.906 1032.22 568.612 1036.83 555.494 1040.76C549.837 1028.21 543.722 1016.27 537.502 1004.04L535.263 999.768C531.375 992.489 527.127 985.107 523.098 977.892Z" fill="#CDD1DC"/>
<path d="M537.502 1004.04C537.859 1003.02 538.215 1001.99 538.572 1000.96C547.178 995.244 559.347 987.025 568.088 982.696C569.948 981.782 571.83 980.922 573.732 980.115C580.208 988.349 596.023 1016.26 600.023 1027.95C600.316 1028.81 599.107 1030.14 598.459 1031.11C584.906 1032.22 568.612 1036.83 555.494 1040.76C549.837 1028.21 543.722 1016.27 537.502 1004.04Z" fill="#E6E8F2"/>
<path d="M523.098 977.892C541.849 969.033 572.847 953.221 589.09 939.676C592.385 949.658 600.697 961.122 605.362 973.524C602.772 971.473 601.705 970.645 598.836 968.9C587.421 971.389 566.298 981.121 555.744 986.682C549.259 990.098 543.829 994.136 536.816 997.131L535.263 999.768C531.375 992.489 527.127 985.107 523.098 977.892Z" fill="#B9BED1"/>
<path d="M1075.47 1414.11L1075.88 1415.58C1072.89 1421.05 1068.38 1425.73 1064.78 1430.76C1056.28 1442.63 1038.15 1472.42 1025.45 1476.63C1012.77 1480.84 921.47 1467.21 908.33 1459.57C907.081 1458.85 906.483 1459.17 905.092 1459.3L903.663 1461.53C903.229 1465.28 903.449 1464.89 903.964 1468.4C907.968 1495.71 920.643 1527.37 939.924 1545.99C954.281 1559.87 980.212 1568.76 997.031 1578.56C1014.88 1588.96 1034.43 1598.16 1053.77 1604.98C1058.34 1606.56 1058.5 1606.51 1063.03 1608.95L1062.21 1610.01C1058 1608.76 1054.05 1607.26 1049.91 1605.75C1009.11 1590.93 927.799 1545.59 890.525 1519.89C888.865 1495.46 890.428 1477.57 889.977 1454.48C904.499 1456.34 920.469 1460.9 935.019 1464.12C966.755 1471.14 994.082 1475.45 1026.45 1475.14C1034.45 1466.49 1038.52 1463.08 1046.42 1453.02C1055.55 1441.4 1066.09 1424.61 1075.47 1414.11Z" fill="#404854"/>
<path d="M1703.48 1607.96C1710.53 1613.12 1707.2 1633.24 1704.38 1641L1702.84 1640.61C1702.39 1631.97 1703.93 1619.52 1703.48 1607.96Z" fill="#CDD1DC"/>
<defs>
<linearGradient id="paint0_linear_39_89" x1="1227.92" y1="682.834" x2="1247.42" y2="892.956" gradientUnits="userSpaceOnUse">
<stop stop-color="#1E1D2A"/>
<stop offset="1" stop-color="#32353F"/>
</linearGradient>
<linearGradient id="paint1_linear_39_89" x1="141.639" y1="641.917" x2="612.925" y2="716.603" gradientUnits="userSpaceOnUse">
<stop stop-color="#5C9BE9"/>
<stop offset="1" stop-color="#7BBBFA"/>
</linearGradient>
<linearGradient id="paint2_linear_39_89" x1="1634.85" y1="472.866" x2="1327.35" y2="472.866" gradientUnits="userSpaceOnUse">
<stop stop-color="#6C93EE"/>
<stop offset="1" stop-color="#95D3FF"/>
</linearGradient>
<linearGradient id="paint3_linear_39_89" x1="984.335" y1="547.679" x2="984.335" y2="395.121" gradientUnits="userSpaceOnUse">
<stop stop-color="#6C93EE"/>
<stop offset="1" stop-color="#95D3FF"/>
</linearGradient>
<linearGradient id="paint4_linear_39_89" x1="844.029" y1="1347.29" x2="754.097" y2="1162.54" gradientUnits="userSpaceOnUse">
<stop stop-color="#DDE0ED"/>
<stop offset="1" stop-color="white"/>
</linearGradient>
<linearGradient id="paint5_linear_39_89" x1="1909.47" y1="478.9" x2="1862.81" y2="482.075" gradientUnits="userSpaceOnUse">
<stop stop-color="#8A8E9C"/>
<stop offset="1" stop-color="#C3C9D6"/>
</linearGradient>
<linearGradient id="paint6_linear_39_89" x1="1971.76" y1="488.138" x2="1899.74" y2="478.04" gradientUnits="userSpaceOnUse">
<stop stop-color="#4689EA"/>
<stop offset="1" stop-color="#95BFFF"/>
</linearGradient>
<linearGradient id="paint7_linear_39_89" x1="616.951" y1="397.605" x2="601.067" y2="395.308" gradientUnits="userSpaceOnUse">
<stop stop-color="#838995"/>
<stop offset="1" stop-color="#9DA4B1"/>
</linearGradient>
</defs>
</svg>
